<svg width="120" height="107" viewBox="0 0 120 107" fill="none" xmlns="http://www.w3.org/2000/svg">
<path d="M10.1547 83.192C13.0507 83.192 14.5067 81.496 14.5067 78.84V72.328H13.1787V78.824C13.1787 80.776 12.1227 82.008 10.1547 82.008C8.18669 82.008 7.13069 80.776 7.13069 78.824V72.328H5.80269V78.856C5.80269 81.48 7.25869 83.192 10.1547 83.192ZM20.7658 83.192C22.7978 83.192 24.2058 81.624 24.2058 79.128C24.2058 76.616 22.7978 75.08 20.7658 75.08C19.6778 75.08 18.7178 75.64 18.1578 76.424V75.272H16.9578V85.944H18.1578V81.832C18.7818 82.696 19.7098 83.192 20.7658 83.192ZM20.4618 82.12C19.5178 82.12 18.5738 81.544 18.1578 80.872V77.384C18.5738 76.712 19.5178 76.152 20.4618 76.152C22.0138 76.152 22.9418 77.416 22.9418 79.128C22.9418 80.84 22.0138 82.12 20.4618 82.12ZM27.3141 83V72.328H26.1141V83H27.3141ZM33.0838 83.192C35.4358 83.192 36.9078 81.368 36.9078 79.128C36.9078 76.888 35.4358 75.08 33.0838 75.08C30.7318 75.08 29.2598 76.888 29.2598 79.128C29.2598 81.368 30.7318 83.192 33.0838 83.192ZM33.0838 82.12C31.4358 82.12 30.5078 80.712 30.5078 79.128C30.5078 77.56 31.4358 76.152 33.0838 76.152C34.7318 76.152 35.6438 77.56 35.6438 79.128C35.6438 80.712 34.7318 82.12 33.0838 82.12ZM44.8961 83V77.688C44.8961 75.816 43.5361 75.08 41.9041 75.08C40.6401 75.08 39.6481 75.496 38.8161 76.36L39.3761 77.192C40.0641 76.456 40.8161 76.12 41.7441 76.12C42.8641 76.12 43.6961 76.712 43.6961 77.752V79.144C43.0721 78.424 42.1921 78.088 41.1361 78.088C39.8241 78.088 38.4321 78.904 38.4321 80.632C38.4321 82.312 39.8241 83.192 41.1361 83.192C42.1761 83.192 43.0561 82.824 43.6961 82.12V83H44.8961ZM41.5681 82.328C40.4481 82.328 39.6641 81.624 39.6641 80.648C39.6641 79.656 40.4481 78.952 41.5681 78.952C42.4161 78.952 43.2321 79.272 43.6961 79.912V81.368C43.2321 82.008 42.4161 82.328 41.5681 82.328ZM54.1016 83V72.328H52.9016V76.44C52.2776 75.592 51.3336 75.08 50.2936 75.08C48.2616 75.08 46.8536 76.68 46.8536 79.144C46.8536 81.656 48.2776 83.192 50.2936 83.192C51.3816 83.192 52.3256 82.632 52.9016 81.848V83H54.1016ZM50.5816 82.12C49.0296 82.12 48.1016 80.856 48.1016 79.144C48.1016 77.432 49.0296 76.152 50.5816 76.152C51.5416 76.152 52.4696 76.728 52.9016 77.4V80.904C52.4696 81.576 51.5416 82.12 50.5816 82.12ZM66.6617 83V77.688C66.6617 75.816 65.3017 75.08 63.6697 75.08C62.4057 75.08 61.4137 75.496 60.5817 76.36L61.1417 77.192C61.8297 76.456 62.5817 76.12 63.5097 76.12C64.6297 76.12 65.4617 76.712 65.4617 77.752V79.144C64.8377 78.424 63.9577 78.088 62.9017 78.088C61.5897 78.088 60.1977 78.904 60.1977 80.632C60.1977 82.312 61.5897 83.192 62.9017 83.192C63.9417 83.192 64.8217 82.824 65.4617 82.12V83H66.6617ZM63.3337 82.328C62.2137 82.328 61.4297 81.624 61.4297 80.648C61.4297 79.656 62.2137 78.952 63.3337 78.952C64.1817 78.952 64.9977 79.272 65.4617 79.912V81.368C64.9977 82.008 64.1817 82.328 63.3337 82.328ZM75.8672 83V72.328H74.6672V76.44C74.0432 75.592 73.0992 75.08 72.0592 75.08C70.0272 75.08 68.6192 76.68 68.6192 79.144C68.6192 81.656 70.0432 83.192 72.0592 83.192C73.1472 83.192 74.0912 82.632 74.6672 81.848V83H75.8672ZM72.3472 82.12C70.7952 82.12 69.8672 80.856 69.8672 79.144C69.8672 77.432 70.7952 76.152 72.3472 76.152C73.3072 76.152 74.2352 76.728 74.6672 77.4V80.904C74.2352 81.576 73.3072 82.12 72.3472 82.12ZM85.0703 83V72.328H83.8703V76.44C83.2463 75.592 82.3023 75.08 81.2623 75.08C79.2303 75.08 77.8223 76.68 77.8223 79.144C77.8223 81.656 79.2463 83.192 81.2623 83.192C82.3503 83.192 83.2943 82.632 83.8703 81.848V83H85.0703ZM81.5503 82.12C79.9983 82.12 79.0703 80.856 79.0703 79.144C79.0703 77.432 79.9983 76.152 81.5503 76.152C82.5103 76.152 83.4383 76.728 83.8703 77.4V80.904C83.4383 81.576 82.5103 82.12 81.5503 82.12ZM88.6734 83V77.528C89.0254 76.904 90.0334 76.296 90.7694 76.296C90.9614 76.296 91.1054 76.312 91.2494 76.344V75.112C90.1934 75.112 89.2974 75.704 88.6734 76.52V75.272H87.4734V83H88.6734ZM96.2427 83.192C97.5067 83.192 98.5467 82.776 99.3147 82.008L98.7387 81.224C98.1307 81.848 97.2347 82.2 96.3547 82.2C94.6907 82.2 93.6667 80.984 93.5707 79.528H99.8267V79.224C99.8267 76.904 98.4507 75.08 96.1147 75.08C93.9067 75.08 92.3067 76.888 92.3067 79.128C92.3067 81.544 93.9547 83.192 96.2427 83.192ZM98.6427 78.648H93.5707C93.6347 77.464 94.4507 76.072 96.0987 76.072C97.8587 76.072 98.6267 77.496 98.6427 78.648ZM104.218 83.192C106.218 83.192 107.258 82.152 107.258 80.856C107.258 77.848 102.474 78.968 102.474 77.272C102.474 76.584 103.13 76.056 104.186 76.056C105.178 76.056 106.026 76.472 106.49 77.032L107.05 76.2C106.426 75.576 105.498 75.08 104.186 75.08C102.346 75.08 101.306 76.104 101.306 77.304C101.306 80.168 106.09 79.016 106.09 80.888C106.09 81.656 105.45 82.216 104.266 82.216C103.21 82.216 102.234 81.704 101.722 81.112L101.098 81.976C101.882 82.808 102.954 83.192 104.218 83.192ZM111.656 83.192C113.656 83.192 114.696 82.152 114.696 80.856C114.696 77.848 109.912 78.968 109.912 77.272C109.912 76.584 110.568 76.056 111.624 76.056C112.616 76.056 113.464 76.472 113.928 77.032L114.488 76.2C113.864 75.576 112.936 75.08 111.624 75.08C109.784 75.08 108.744 76.104 108.744 77.304C108.744 80.168 113.528 79.016 113.528 80.888C113.528 81.656 112.888 82.216 111.704 82.216C110.648 82.216 109.672 81.704 109.16 81.112L108.536 81.976C109.32 82.808 110.392 83.192 111.656 83.192ZM27.4143 102.192C29.4463 102.192 30.8542 100.624 30.8542 98.128C30.8542 95.616 29.4463 94.08 27.4143 94.08C26.3263 94.08 25.3663 94.64 24.8063 95.424V94.272H23.6063V104.944H24.8063V100.832C25.4303 101.696 26.3583 102.192 27.4143 102.192ZM27.1102 101.12C26.1663 101.12 25.2223 100.544 24.8063 99.872V96.384C25.2223 95.712 26.1663 95.152 27.1102 95.152C28.6623 95.152 29.5903 96.416 29.5903 98.128C29.5903 99.84 28.6623 101.12 27.1102 101.12ZM33.9625 102V96.528C34.3145 95.904 35.3225 95.296 36.0585 95.296C36.2505 95.296 36.3945 95.312 36.5385 95.344V94.112C35.4825 94.112 34.5865 94.704 33.9625 95.52V94.272H32.7625V102H33.9625ZM41.4198 102.192C43.7718 102.192 45.2438 100.368 45.2438 98.128C45.2438 95.888 43.7718 94.08 41.4198 94.08C39.0678 94.08 37.5958 95.888 37.5958 98.128C37.5958 100.368 39.0678 102.192 41.4198 102.192ZM41.4198 101.12C39.7718 101.12 38.8438 99.712 38.8438 98.128C38.8438 96.56 39.7718 95.152 41.4198 95.152C43.0678 95.152 43.9798 96.56 43.9798 98.128C43.9798 99.712 43.0678 101.12 41.4198 101.12ZM50.576 102.192C52.928 102.192 54.4 100.368 54.4 98.128C54.4 95.888 52.928 94.08 50.576 94.08C48.224 94.08 46.752 95.888 46.752 98.128C46.752 100.368 48.224 102.192 50.576 102.192ZM50.576 101.12C48.928 101.12 48 99.712 48 98.128C48 96.56 48.928 95.152 50.576 95.152C52.224 95.152 53.136 96.56 53.136 98.128C53.136 99.712 52.224 101.12 50.576 101.12ZM57.8923 102V95.328H59.4603V94.272H57.8923V93.68C57.8923 92.704 58.3243 92.16 59.1083 92.16C59.5083 92.16 59.8123 92.32 60.0683 92.544L60.5643 91.76C60.0843 91.312 59.5403 91.168 58.9323 91.168C57.5563 91.168 56.6923 92.096 56.6923 93.68V94.272H55.4123V95.328H56.6923V102H57.8923ZM66.2125 99.904V96.4C66.6285 95.728 67.5725 95.152 68.5165 95.152C70.0845 95.152 71.0125 96.432 71.0125 98.144C71.0125 99.856 70.0845 101.12 68.5165 101.12C67.5725 101.12 66.6285 100.576 66.2125 99.904ZM66.2125 102V100.848C66.7885 101.632 67.7325 102.192 68.8205 102.192C70.8365 102.192 72.2605 100.656 72.2605 98.144C72.2605 95.68 70.8365 94.08 68.8205 94.08C67.7645 94.08 66.8365 94.592 66.2125 95.44V91.328H65.0125V102H66.2125ZM80.2476 102V96.688C80.2476 94.816 78.8876 94.08 77.2556 94.08C75.9916 94.08 74.9996 94.496 74.1676 95.36L74.7276 96.192C75.4156 95.456 76.1676 95.12 77.0956 95.12C78.2156 95.12 79.0476 95.712 79.0476 96.752V98.144C78.4236 97.424 77.5436 97.088 76.4876 97.088C75.1756 97.088 73.7836 97.904 73.7836 99.632C73.7836 101.312 75.1756 102.192 76.4876 102.192C77.5276 102.192 78.4076 101.824 79.0476 101.12V102H80.2476ZM76.9196 101.328C75.7996 101.328 75.0156 100.624 75.0156 99.648C75.0156 98.656 75.7996 97.952 76.9196 97.952C77.7676 97.952 78.5836 98.272 79.0476 98.912V100.368C78.5836 101.008 77.7676 101.328 76.9196 101.328ZM86.0611 102.192C87.4691 102.192 88.3011 101.616 88.8931 100.848L88.0931 100.112C87.5811 100.8 86.9251 101.12 86.1251 101.12C84.4771 101.12 83.4531 99.84 83.4531 98.128C83.4531 96.416 84.4771 95.152 86.1251 95.152C86.9251 95.152 87.5811 95.456 88.0931 96.16L88.8931 95.424C88.3011 94.656 87.4691 94.08 86.0611 94.08C83.7571 94.08 82.2051 95.84 82.2051 98.128C82.2051 100.432 83.7571 102.192 86.0611 102.192ZM97.375 102L93.935 97.776L97.359 94.272H95.839L91.775 98.384V91.328H90.575V102H91.775V99.792L93.055 98.528L95.839 102H97.375Z" fill="#202020"/>
<circle cx="61" cy="25" r="25" fill="#E3EBF8"/>
<path d="M57.0007 22.3333C58.4734 22.3333 59.6673 21.1394 59.6673 19.6667C59.6673 18.1939 58.4734 17 57.0007 17C55.5279 17 54.334 18.1939 54.334 19.6667C54.334 21.1394 55.5279 22.3333 57.0007 22.3333Z" stroke="#3F75F3" stroke-width="1.5" stroke-linecap="round" stroke-linejoin="round"/>
<path d="M62.3327 11.6666H56.9993C50.3327 11.6666 47.666 14.3333 47.666 21V29C47.666 35.6666 50.3327 38.3333 56.9993 38.3333H64.9993C71.666 38.3333 74.3327 35.6666 74.3327 29V22.3333" stroke="#3F75F3" stroke-width="1.5" stroke-linecap="round" stroke-linejoin="round"/>
<path d="M66 15.6666H73.3333" stroke="#3F75F3" stroke-width="1.5" stroke-linecap="round"/>
<path d="M69.666 19.3333V12" stroke="#3F75F3" stroke-width="1.5" stroke-linecap="round"/>
<path d="M48.5605 34.2667L55.1339 29.8534C56.1872 29.1467 57.7072 29.2267 58.6539 30.04L59.0939 30.4267C60.1339 31.32 61.8139 31.32 62.8539 30.4267L68.4005 25.6667C69.4405 24.7734 71.1205 24.7734 72.1605 25.6667L74.3339 27.5334" stroke="#3F75F3" stroke-width="1.5" stroke-linecap="round" stroke-linejoin="round"/>
</svg>
