<svg width="120" height="107" viewBox="0 0 120 107" fill="none" xmlns="http://www.w3.org/2000/svg">
<path d="M10.1547 83.192C13.0507 83.192 14.5067 81.496 14.5067 78.84V72.328H13.1787V78.824C13.1787 80.776 12.1227 82.008 10.1547 82.008C8.18669 82.008 7.13069 80.776 7.13069 78.824V72.328H5.80269V78.856C5.80269 81.48 7.25869 83.192 10.1547 83.192ZM20.7658 83.192C22.7978 83.192 24.2058 81.624 24.2058 79.128C24.2058 76.616 22.7978 75.08 20.7658 75.08C19.6778 75.08 18.7178 75.64 18.1578 76.424V75.272H16.9578V85.944H18.1578V81.832C18.7818 82.696 19.7098 83.192 20.7658 83.192ZM20.4618 82.12C19.5178 82.12 18.5738 81.544 18.1578 80.872V77.384C18.5738 76.712 19.5178 76.152 20.4618 76.152C22.0138 76.152 22.9418 77.416 22.9418 79.128C22.9418 80.84 22.0138 82.12 20.4618 82.12ZM27.3141 83V72.328H26.1141V83H27.3141ZM33.0838 83.192C35.4358 83.192 36.9078 81.368 36.9078 79.128C36.9078 76.888 35.4358 75.08 33.0838 75.08C30.7318 75.08 29.2598 76.888 29.2598 79.128C29.2598 81.368 30.7318 83.192 33.0838 83.192ZM33.0838 82.12C31.4358 82.12 30.5078 80.712 30.5078 79.128C30.5078 77.56 31.4358 76.152 33.0838 76.152C34.7318 76.152 35.6438 77.56 35.6438 79.128C35.6438 80.712 34.7318 82.12 33.0838 82.12ZM44.8961 83V77.688C44.8961 75.816 43.5361 75.08 41.9041 75.08C40.6401 75.08 39.6481 75.496 38.8161 76.36L39.3761 77.192C40.0641 76.456 40.8161 76.12 41.7441 76.12C42.8641 76.12 43.6961 76.712 43.6961 77.752V79.144C43.0721 78.424 42.1921 78.088 41.1361 78.088C39.8241 78.088 38.4321 78.904 38.4321 80.632C38.4321 82.312 39.8241 83.192 41.1361 83.192C42.1761 83.192 43.0561 82.824 43.6961 82.12V83H44.8961ZM41.5681 82.328C40.4481 82.328 39.6641 81.624 39.6641 80.648C39.6641 79.656 40.4481 78.952 41.5681 78.952C42.4161 78.952 43.2321 79.272 43.6961 79.912V81.368C43.2321 82.008 42.4161 82.328 41.5681 82.328ZM54.1016 83V72.328H52.9016V76.44C52.2776 75.592 51.3336 75.08 50.2936 75.08C48.2616 75.08 46.8536 76.68 46.8536 79.144C46.8536 81.656 48.2776 83.192 50.2936 83.192C51.3816 83.192 52.3256 82.632 52.9016 81.848V83H54.1016ZM50.5816 82.12C49.0296 82.12 48.1016 80.856 48.1016 79.144C48.1016 77.432 49.0296 76.152 50.5816 76.152C51.5416 76.152 52.4696 76.728 52.9016 77.4V80.904C52.4696 81.576 51.5416 82.12 50.5816 82.12ZM66.6617 83V77.688C66.6617 75.816 65.3017 75.08 63.6697 75.08C62.4057 75.08 61.4137 75.496 60.5817 76.36L61.1417 77.192C61.8297 76.456 62.5817 76.12 63.5097 76.12C64.6297 76.12 65.4617 76.712 65.4617 77.752V79.144C64.8377 78.424 63.9577 78.088 62.9017 78.088C61.5897 78.088 60.1977 78.904 60.1977 80.632C60.1977 82.312 61.5897 83.192 62.9017 83.192C63.9417 83.192 64.8217 82.824 65.4617 82.12V83H66.6617ZM63.3337 82.328C62.2137 82.328 61.4297 81.624 61.4297 80.648C61.4297 79.656 62.2137 78.952 63.3337 78.952C64.1817 78.952 64.9977 79.272 65.4617 79.912V81.368C64.9977 82.008 64.1817 82.328 63.3337 82.328ZM75.8672 83V72.328H74.6672V76.44C74.0432 75.592 73.0992 75.08 72.0592 75.08C70.0272 75.08 68.6192 76.68 68.6192 79.144C68.6192 81.656 70.0432 83.192 72.0592 83.192C73.1472 83.192 74.0912 82.632 74.6672 81.848V83H75.8672ZM72.3472 82.12C70.7952 82.12 69.8672 80.856 69.8672 79.144C69.8672 77.432 70.7952 76.152 72.3472 76.152C73.3072 76.152 74.2352 76.728 74.6672 77.4V80.904C74.2352 81.576 73.3072 82.12 72.3472 82.12ZM85.0703 83V72.328H83.8703V76.44C83.2463 75.592 82.3023 75.08 81.2623 75.08C79.2303 75.08 77.8223 76.68 77.8223 79.144C77.8223 81.656 79.2463 83.192 81.2623 83.192C82.3503 83.192 83.2943 82.632 83.8703 81.848V83H85.0703ZM81.5503 82.12C79.9983 82.12 79.0703 80.856 79.0703 79.144C79.0703 77.432 79.9983 76.152 81.5503 76.152C82.5103 76.152 83.4383 76.728 83.8703 77.4V80.904C83.4383 81.576 82.5103 82.12 81.5503 82.12ZM88.6734 83V77.528C89.0254 76.904 90.0334 76.296 90.7694 76.296C90.9614 76.296 91.1054 76.312 91.2494 76.344V75.112C90.1934 75.112 89.2974 75.704 88.6734 76.52V75.272H87.4734V83H88.6734ZM96.2427 83.192C97.5067 83.192 98.5467 82.776 99.3147 82.008L98.7387 81.224C98.1307 81.848 97.2347 82.2 96.3547 82.2C94.6907 82.2 93.6667 80.984 93.5707 79.528H99.8267V79.224C99.8267 76.904 98.4507 75.08 96.1147 75.08C93.9067 75.08 92.3067 76.888 92.3067 79.128C92.3067 81.544 93.9547 83.192 96.2427 83.192ZM98.6427 78.648H93.5707C93.6347 77.464 94.4507 76.072 96.0987 76.072C97.8587 76.072 98.6267 77.496 98.6427 78.648ZM104.218 83.192C106.218 83.192 107.258 82.152 107.258 80.856C107.258 77.848 102.474 78.968 102.474 77.272C102.474 76.584 103.13 76.056 104.186 76.056C105.178 76.056 106.026 76.472 106.49 77.032L107.05 76.2C106.426 75.576 105.498 75.08 104.186 75.08C102.346 75.08 101.306 76.104 101.306 77.304C101.306 80.168 106.09 79.016 106.09 80.888C106.09 81.656 105.45 82.216 104.266 82.216C103.21 82.216 102.234 81.704 101.722 81.112L101.098 81.976C101.882 82.808 102.954 83.192 104.218 83.192ZM111.656 83.192C113.656 83.192 114.696 82.152 114.696 80.856C114.696 77.848 109.912 78.968 109.912 77.272C109.912 76.584 110.568 76.056 111.624 76.056C112.616 76.056 113.464 76.472 113.928 77.032L114.488 76.2C113.864 75.576 112.936 75.08 111.624 75.08C109.784 75.08 108.744 76.104 108.744 77.304C108.744 80.168 113.528 79.016 113.528 80.888C113.528 81.656 112.888 82.216 111.704 82.216C110.648 82.216 109.672 81.704 109.16 81.112L108.536 81.976C109.32 82.808 110.392 83.192 111.656 83.192ZM28.0627 102.192C30.0947 102.192 31.5027 100.624 31.5027 98.128C31.5027 95.616 30.0947 94.08 28.0627 94.08C26.9747 94.08 26.0147 94.64 25.4547 95.424V94.272H24.2547V104.944H25.4547V100.832C26.0787 101.696 27.0067 102.192 28.0627 102.192ZM27.7587 101.12C26.8147 101.12 25.8707 100.544 25.4547 99.872V96.384C25.8707 95.712 26.8147 95.152 27.7587 95.152C29.3107 95.152 30.2387 96.416 30.2387 98.128C30.2387 99.84 29.3107 101.12 27.7587 101.12ZM34.6109 102V96.528C34.9629 95.904 35.9709 95.296 36.7069 95.296C36.8989 95.296 37.0429 95.312 37.1869 95.344V94.112C36.1309 94.112 35.2349 94.704 34.6109 95.52V94.272H33.4109V102H34.6109ZM42.0682 102.192C44.4202 102.192 45.8922 100.368 45.8922 98.128C45.8922 95.888 44.4202 94.08 42.0682 94.08C39.7162 94.08 38.2442 95.888 38.2442 98.128C38.2442 100.368 39.7162 102.192 42.0682 102.192ZM42.0682 101.12C40.4202 101.12 39.4922 99.712 39.4922 98.128C39.4922 96.56 40.4202 95.152 42.0682 95.152C43.7162 95.152 44.6282 96.56 44.6282 98.128C44.6282 99.712 43.7162 101.12 42.0682 101.12ZM51.2244 102.192C53.5764 102.192 55.0484 100.368 55.0484 98.128C55.0484 95.888 53.5764 94.08 51.2244 94.08C48.8724 94.08 47.4004 95.888 47.4004 98.128C47.4004 100.368 48.8724 102.192 51.2244 102.192ZM51.2244 101.12C49.5764 101.12 48.6484 99.712 48.6484 98.128C48.6484 96.56 49.5764 95.152 51.2244 95.152C52.8724 95.152 53.7844 96.56 53.7844 98.128C53.7844 99.712 52.8724 101.12 51.2244 101.12ZM58.5407 102V95.328H60.1087V94.272H58.5407V93.68C58.5407 92.704 58.9727 92.16 59.7567 92.16C60.1567 92.16 60.4607 92.32 60.7167 92.544L61.2127 91.76C60.7327 91.312 60.1887 91.168 59.5807 91.168C58.2047 91.168 57.3407 92.096 57.3407 93.68V94.272H56.0607V95.328H57.3407V102H58.5407ZM67.1969 102V95.328H68.7649V94.272H67.1969V93.68C67.1969 92.704 67.6289 92.16 68.4129 92.16C68.8129 92.16 69.1169 92.32 69.3729 92.544L69.8689 91.76C69.3889 91.312 68.8449 91.168 68.2369 91.168C66.8609 91.168 65.9969 92.096 65.9969 93.68V94.272H64.7169V95.328H65.9969V102H67.1969ZM71.3922 102V96.528C71.7442 95.904 72.7522 95.296 73.4882 95.296C73.6802 95.296 73.8242 95.312 73.9682 95.344V94.112C72.9122 94.112 72.0162 94.704 71.3922 95.52V94.272H70.1922V102H71.3922ZM78.8494 102.192C81.2014 102.192 82.6734 100.368 82.6734 98.128C82.6734 95.888 81.2014 94.08 78.8494 94.08C76.4974 94.08 75.0254 95.888 75.0254 98.128C75.0254 100.368 76.4974 102.192 78.8494 102.192ZM78.8494 101.12C77.2014 101.12 76.2734 99.712 76.2734 98.128C76.2734 96.56 77.2014 95.152 78.8494 95.152C80.4974 95.152 81.4094 96.56 81.4094 98.128C81.4094 99.712 80.4974 101.12 78.8494 101.12ZM91.0457 102V96.576C91.0457 94.896 90.1977 94.08 88.5817 94.08C87.4297 94.08 86.3737 94.752 85.8297 95.392V94.272H84.6297V102H85.8297V96.352C86.2777 95.728 87.1737 95.152 88.1177 95.152C89.1577 95.152 89.8457 95.584 89.8457 96.944V102H91.0457ZM95.3942 102.192C96.0982 102.192 96.5302 101.984 96.8342 101.696L96.4822 100.8C96.3222 100.976 96.0022 101.12 95.6662 101.12C95.1382 101.12 94.8822 100.704 94.8822 100.128V95.328H96.4502V94.272H94.8822V92.16H93.6822V94.272H92.4022V95.328H93.6822V100.384C93.6822 101.536 94.2582 102.192 95.3942 102.192Z" fill="#202020"/>
<circle cx="60" cy="25" r="25" fill="#E3EBF8"/>
<path d="M56.0007 22.3333C57.4734 22.3333 58.6673 21.1394 58.6673 19.6667C58.6673 18.1939 57.4734 17 56.0007 17C54.5279 17 53.334 18.1939 53.334 19.6667C53.334 21.1394 54.5279 22.3333 56.0007 22.3333Z" stroke="#3F75F3" stroke-width="1.5" stroke-linecap="round" stroke-linejoin="round"/>
<path d="M61.3327 11.6666H55.9993C49.3327 11.6666 46.666 14.3333 46.666 21V29C46.666 35.6666 49.3327 38.3333 55.9993 38.3333H63.9993C70.666 38.3333 73.3327 35.6666 73.3327 29V22.3333" stroke="#3F75F3" stroke-width="1.5" stroke-linecap="round" stroke-linejoin="round"/>
<path d="M65 15.6666H72.3333" stroke="#3F75F3" stroke-width="1.5" stroke-linecap="round"/>
<path d="M68.666 19.3333V12" stroke="#3F75F3" stroke-width="1.5" stroke-linecap="round"/>
<path d="M47.5605 34.2667L54.1339 29.8534C55.1872 29.1467 56.7072 29.2267 57.6539 30.04L58.0939 30.4267C59.1339 31.32 60.8139 31.32 61.8539 30.4267L67.4005 25.6667C68.4405 24.7734 70.1205 24.7734 71.1605 25.6667L73.3339 27.5334" stroke="#3F75F3" stroke-width="1.5" stroke-linecap="round" stroke-linejoin="round"/>
</svg>
