<svg width="22" height="22" viewBox="0 0 22 22" fill="none" xmlns="http://www.w3.org/2000/svg">
<path d="M1.83337 20.1667H20.1667" stroke="#3F75F3" stroke-width="1.4" stroke-linecap="round" stroke-linejoin="round"/>
<path d="M2.85083 20.1667V11.9167C2.85083 10.395 4.21666 9.16666 5.90333 9.16666H16.0875C17.7742 9.16666 19.14 10.395 19.14 11.9167V20.1667" stroke="#3F75F3" stroke-width="1.4" stroke-linecap="round" stroke-linejoin="round"/>
<path d="M5.09668 9.16668V6.57251C5.09668 5.47251 6.08668 4.58334 7.31501 4.58334H14.6942C15.9133 4.58334 16.9033 5.47251 16.9033 6.57251V9.16668" stroke="#3F75F3" stroke-width="1.4" stroke-linecap="round" stroke-linejoin="round"/>
<path d="M3.23584 12.815L3.57501 12.8242C4.25334 12.8333 4.79417 13.3833 4.79417 14.0617V14.3642C4.79417 15.0425 5.34417 15.6017 6.03167 15.6017C6.71001 15.6017 7.26917 15.0517 7.26917 14.3642V14.08C7.26917 13.4017 7.81917 12.8425 8.50667 12.8425C9.18501 12.8425 9.74417 13.3925 9.74417 14.08V14.3642C9.74417 15.0425 10.2942 15.6017 10.9817 15.6017C11.66 15.6017 12.2192 15.0517 12.2192 14.3642V14.08C12.2192 13.4017 12.7692 12.8425 13.4567 12.8425C14.135 12.8425 14.6942 13.3925 14.6942 14.08V14.3642C14.6942 15.0425 15.2442 15.6017 15.9317 15.6017C16.61 15.6017 17.1692 15.0517 17.1692 14.3642V14.08C17.1692 13.4017 17.7192 12.8425 18.4067 12.8425H18.8192" stroke="#3F75F3" stroke-width="1.4" stroke-linecap="round" stroke-linejoin="round"/>
<path d="M7.33337 4.58333V2.75" stroke="#3F75F3" stroke-width="1.4" stroke-linecap="round" stroke-linejoin="round"/>
<path d="M14.6666 4.58333V2.75" stroke="#3F75F3" stroke-width="1.4" stroke-linecap="round" stroke-linejoin="round"/>
<path d="M11 4.58334V1.83334" stroke="#3F75F3" stroke-width="1.4" stroke-linecap="round" stroke-linejoin="round"/>
</svg>
