<svg width="20" height="20" viewBox="0 0 20 20" fill="none" xmlns="http://www.w3.org/2000/svg">
<path d="M5.41675 18.3333L5.41675 12.5" stroke="#3F75F3" stroke-width="1.5" stroke-miterlimit="10" stroke-linecap="round" stroke-linejoin="round"/>
<path d="M5.41675 4.16666V1.66666" stroke="#3F75F3" stroke-width="1.5" stroke-miterlimit="10" stroke-linecap="round" stroke-linejoin="round"/>
<path d="M14.5833 18.3333V15.8333" stroke="#3F75F3" stroke-width="1.5" stroke-miterlimit="10" stroke-linecap="round" stroke-linejoin="round"/>
<path d="M14.5833 7.5L14.5833 1.66666" stroke="#3F75F3" stroke-width="1.5" stroke-miterlimit="10" stroke-linecap="round" stroke-linejoin="round"/>
<path d="M7.91675 5.83333L7.91675 10.8333C7.91675 11.75 7.50008 12.5 6.25008 12.5H4.58341C3.33341 12.5 2.91675 11.75 2.91675 10.8333L2.91675 5.83333C2.91675 4.91666 3.33341 4.16666 4.58341 4.16666L6.25008 4.16666C7.50008 4.16666 7.91675 4.91666 7.91675 5.83333Z" stroke="#3F75F3" stroke-width="1.5" stroke-miterlimit="10" stroke-linecap="round" stroke-linejoin="round"/>
<path d="M17.0833 9.16667V14.1667C17.0833 15.0833 16.6666 15.8333 15.4166 15.8333H13.7499C12.4999 15.8333 12.0833 15.0833 12.0833 14.1667L12.0833 9.16667C12.0833 8.25 12.4999 7.5 13.7499 7.5L15.4166 7.5C16.6666 7.5 17.0833 8.25 17.0833 9.16667Z" stroke="#3F75F3" stroke-width="1.5" stroke-miterlimit="10" stroke-linecap="round" stroke-linejoin="round"/>
</svg>
