<svg width="30" height="30" viewBox="0 0 30 30" fill="none" xmlns="http://www.w3.org/2000/svg">
<rect width="30" height="30" rx="15" fill="url(#paint0_linear_750_1861)"/>
<path d="M15.4998 18.8958C15.3019 18.8958 15.104 18.8229 14.9478 18.6667L11.8228 15.5417C11.5207 15.2396 11.5207 14.7396 11.8228 14.4375C12.1248 14.1354 12.6248 14.1354 12.9269 14.4375L15.4998 17.0104L18.0728 14.4375C18.3748 14.1354 18.8748 14.1354 19.1769 14.4375C19.479 14.7396 19.479 15.2396 19.1769 15.5417L16.0519 18.6667C15.8957 18.8229 15.6978 18.8958 15.4998 18.8958Z" fill="#F1F5F9"/>
<path d="M15.5 18.8958C15.0729 18.8958 14.7188 18.5417 14.7188 18.1146V9.78126C14.7188 9.35418 15.0729 9.00001 15.5 9.00001C15.9271 9.00001 16.2812 9.35418 16.2812 9.78126V18.1146C16.2812 18.5521 15.9271 18.8958 15.5 18.8958Z" fill="#F1F5F9"/>
<path d="M15.4999 21.9896C13.302 21.9896 11.0936 21.6355 8.99988 20.9375C8.59363 20.8021 8.37488 20.3542 8.5103 19.948C8.64572 19.5417 9.08321 19.3125 9.49988 19.4584C13.3749 20.75 17.6353 20.75 21.5103 19.4584C21.9165 19.323 22.3645 19.5417 22.4999 19.948C22.6353 20.3542 22.4165 20.8021 22.0103 20.9375C19.9061 21.6459 17.6978 21.9896 15.4999 21.9896Z" fill="#F1F5F9"/>
<defs>
<linearGradient id="paint0_linear_750_1861" x1="-1.55844" y1="-3.60001" x2="36.0861" y2="1.217" gradientUnits="userSpaceOnUse">
<stop stop-color="#3FA9F7"/>
<stop offset="1" stop-color="#2360F0"/>
</linearGradient>
</defs>
</svg>
