<svg width="22" height="22" viewBox="0 0 22 22" fill="none" xmlns="http://www.w3.org/2000/svg">
<path d="M12.8202 11C12.8202 12.1045 11.9248 12.9999 10.8203 12.9999C9.71575 12.9999 8.82031 12.1045 8.82031 11C8.82031 9.89544 9.71575 9 10.8203 9C11.9248 9 12.8202 9.89544 12.8202 11Z" fill="#3F75F3"/>
<path d="M16.7408 7.30064C15.1246 5.82087 13.0126 5 10.8214 5C8.6302 5 6.5182 5.82083 4.90197 7.30064L2.78603 9.22479L2.7859 9.22492C2.28539 9.67962 2.00014 10.3243 2 11.0005C1.99987 11.6768 2.28513 12.3216 2.78549 12.7764L4.90194 14.7007C6.51807 16.1806 8.62983 17.0015 10.8214 17.0015C13.0129 17.0015 15.1249 16.1806 16.7408 14.7007L18.8567 12.7766L18.8569 12.7764C19.3574 12.3217 19.6426 11.677 19.6428 11.0008C19.6429 10.3246 19.3576 9.67976 18.8573 9.22493L16.7408 7.30064ZM10.8214 14.6008C9.86662 14.6008 8.95095 14.2215 8.27583 13.5463C7.60071 12.8712 7.2214 11.9555 7.2214 11.0008C7.2214 10.046 7.60067 9.1303 8.27583 8.45518C8.95098 7.78006 9.86662 7.40075 10.8214 7.40075C11.7762 7.40075 12.6919 7.78002 13.367 8.45518C14.0421 9.13033 14.4214 10.046 14.4214 11.0008C14.4203 11.9553 14.0408 12.8703 13.3658 13.5451C12.6909 14.2201 11.7759 14.5997 10.8214 14.6008Z" fill="#3F75F3"/>
</svg>
