<svg width="75" height="75" viewBox="0 0 75 75" fill="none" xmlns="http://www.w3.org/2000/svg">
<path opacity="0.08" d="M37.5 75C16.7922 75 0 58.2078 0 37.5C0 16.7922 16.7922 0 37.5 0C58.2078 0 75 16.7922 75 37.5C75 58.2188 58.2078 75 37.5 75Z" fill="#00CC60"/>
<path d="M37.5 65.625C21.9691 65.625 9.375 53.0309 9.375 37.5C9.375 21.9691 21.9691 9.375 37.5 9.375C53.0309 9.375 65.625 21.9691 65.625 37.5C65.625 53.0391 53.0309 65.625 37.5 65.625Z" fill="#00CC60"/>
<g filter="url(#filter0_d_360_4430)">
<path d="M32.5583 51.0939L21.2607 39.8039L25.3248 35.7398L32.5583 42.9657L50.824 24.7076L54.8805 28.7642L32.5583 51.0939Z" fill="white"/>
</g>
<defs>
<filter id="filter0_d_360_4430" x="11.2607" y="19.7076" width="53.6201" height="46.3863" filterUnits="userSpaceOnUse" color-interpolation-filters="sRGB">
<feFlood flood-opacity="0" result="BackgroundImageFix"/>
<feColorMatrix in="SourceAlpha" type="matrix" values="0 0 0 0 0 0 0 0 0 0 0 0 0 0 0 0 0 0 127 0" result="hardAlpha"/>
<feOffset dy="5"/>
<feGaussianBlur stdDeviation="5"/>
<feComposite in2="hardAlpha" operator="out"/>
<feColorMatrix type="matrix" values="0 0 0 0 0.0269097 0 0 0 0 0.645833 0 0 0 0 0.318168 0 0 0 0.5 0"/>
<feBlend mode="normal" in2="BackgroundImageFix" result="effect1_dropShadow_360_4430"/>
<feBlend mode="normal" in="SourceGraphic" in2="effect1_dropShadow_360_4430" result="shape"/>
</filter>
</defs>
</svg>
