<svg width="74" height="111" viewBox="0 0 74 111" fill="none" xmlns="http://www.w3.org/2000/svg">
<path opacity="0.4" d="M28.75 4.16663C23.2917 4.16663 18.8542 8.60413 18.8542 14.0625C18.8542 19.4166 23.0417 23.75 28.5 23.9375C28.6667 23.9166 28.8334 23.9166 28.9584 23.9375C29 23.9375 29.0209 23.9375 29.0625 23.9375C29.0834 23.9375 29.0834 23.9375 29.1042 23.9375C34.4375 23.75 38.625 19.4166 38.6459 14.0625C38.6459 8.60413 34.2084 4.16663 28.75 4.16663Z" fill="#3F75F3"/>
<path d="M39.3333 29.4791C33.5208 25.6041 24.0416 25.6041 18.1875 29.4791C15.5416 31.25 14.0833 33.6458 14.0833 36.2083C14.0833 38.7708 15.5416 41.1458 18.1666 42.8958C21.0833 44.8541 24.9166 45.8333 28.75 45.8333C32.5833 45.8333 36.4166 44.8541 39.3333 42.8958C41.9583 41.125 43.4167 38.75 43.4167 36.1666C43.3958 33.6041 41.9583 31.2291 39.3333 29.4791Z" fill="#3F75F3"/>
<path opacity="0.4" d="M51.6458 15.2917C51.9791 19.3334 49.1041 22.875 45.125 23.3542C45.1041 23.3542 45.1041 23.3542 45.0833 23.3542H45.0208C44.8958 23.3542 44.7708 23.3542 44.6666 23.3959C42.6458 23.5 40.7916 22.8542 39.3958 21.6667C41.5416 19.75 42.7708 16.875 42.5208 13.75C42.375 12.0625 41.7916 10.5209 40.9166 9.20838C41.7083 8.81255 42.625 8.56255 43.5625 8.47921C47.6458 8.12505 51.2916 11.1667 51.6458 15.2917Z" fill="#3F75F3"/>
<path d="M55.8125 34.5626C55.6458 36.5834 54.3541 38.3334 52.1875 39.5209C50.1041 40.6667 47.4791 41.2084 44.875 41.1459C46.375 39.7917 47.25 38.1042 47.4166 36.3126C47.625 33.7292 46.3958 31.2501 43.9375 29.2709C42.5416 28.1667 40.9166 27.2917 39.1458 26.6459C43.75 25.3126 49.5416 26.2084 53.1041 29.0834C55.0208 30.6251 56 32.5626 55.8125 34.5626Z" fill="#3F75F3"/>
<path d="M6.59032 85.2138C8.97032 85.2138 10.3643 84.0238 11.2313 82.6638L9.53132 81.7968C8.98732 82.7488 7.89932 83.4458 6.59032 83.4458C4.43132 83.4458 2.76532 81.7288 2.76532 79.3488C2.76532 76.9688 4.43132 75.2518 6.59032 75.2518C7.89932 75.2518 8.98732 75.9658 9.53132 76.9008L11.2313 76.0338C10.3813 74.6738 8.97032 73.4838 6.59032 73.4838C3.32632 73.4838 0.72532 75.8638 0.72532 79.3488C0.72532 82.8338 3.32632 85.2138 6.59032 85.2138ZM18.3142 85.0098H20.0992V76.7988H18.3142V82.5618C17.8892 83.1228 17.1072 83.6328 16.2062 83.6328C15.2032 83.6328 14.5572 83.2418 14.5572 81.9668V76.7988H12.7722V82.6128C12.7722 84.2958 13.6392 85.2138 15.4072 85.2138C16.6992 85.2138 17.7192 84.5848 18.3142 83.9218V85.0098ZM21.7037 83.9388C22.5537 84.7718 23.8287 85.2138 25.2227 85.2138C27.4327 85.2138 28.6397 84.1088 28.6397 82.6638C28.6397 80.7258 26.8887 80.3178 25.4607 80.0118C24.4917 79.7908 23.6757 79.5698 23.6757 78.9408C23.6757 78.3628 24.2707 78.0228 25.2057 78.0228C26.2257 78.0228 27.1437 78.4478 27.6367 79.0088L28.3847 77.7508C27.6367 77.0878 26.5827 76.5948 25.1887 76.5948C23.1147 76.5948 21.9587 77.7508 21.9587 79.0938C21.9587 80.9298 23.6417 81.3038 25.0527 81.6098C26.0557 81.8308 26.9227 82.0858 26.9227 82.7998C26.9227 83.4118 26.3787 83.8028 25.3077 83.8028C24.2367 83.8028 23.0977 83.2418 22.5197 82.6468L21.7037 83.9388ZM32.9013 85.2138C33.7343 85.2138 34.2613 84.9928 34.5843 84.6868L34.1593 83.3438C34.0233 83.4968 33.7003 83.6328 33.3603 83.6328C32.8503 83.6328 32.5783 83.2248 32.5783 82.6638V78.3628H34.2443V76.7988H32.5783V74.5548H30.7933V76.7988H29.4333V78.3628H30.7933V83.1058C30.7933 84.4658 31.5243 85.2138 32.9013 85.2138ZM39.571 85.2138C42.206 85.2138 43.804 83.2588 43.804 80.8958C43.804 78.5498 42.206 76.5948 39.571 76.5948C36.97 76.5948 35.355 78.5498 35.355 80.8958C35.355 83.2588 36.97 85.2138 39.571 85.2138ZM39.571 83.6328C38.058 83.6328 37.208 82.3578 37.208 80.8958C37.208 79.4508 38.058 78.1758 39.571 78.1758C41.101 78.1758 41.951 79.4508 41.951 80.8958C41.951 82.3578 41.101 83.6328 39.571 83.6328ZM55.6741 85.0098H57.4591V79.0768C57.4591 77.4108 56.6091 76.5948 55.0961 76.5948C53.8721 76.5948 52.7841 77.3598 52.3081 78.1078C52.0361 77.2068 51.2881 76.5948 50.0641 76.5948C48.8231 76.5948 47.7351 77.4108 47.3951 77.9208V76.7988H45.6101V85.0098H47.3951V79.2808C47.7691 78.7368 48.5001 78.1758 49.2821 78.1758C50.2511 78.1758 50.6421 78.7708 50.6421 79.6548V85.0098H52.4271V79.2638C52.7841 78.7368 53.5321 78.1758 54.3311 78.1758C55.2831 78.1758 55.6741 78.7708 55.6741 79.6548V85.0098ZM59.2612 80.8958C59.2612 83.4968 61.0972 85.2138 63.5622 85.2138C64.8712 85.2138 66.0782 84.8058 66.8942 84.0238L66.0782 82.8508C65.5002 83.4288 64.5482 83.7518 63.7492 83.7518C62.2022 83.7518 61.2672 82.7318 61.1312 81.4908H67.4722V81.0658C67.4722 78.4818 65.8912 76.5948 63.4262 76.5948C60.9952 76.5948 59.2612 78.5158 59.2612 80.8958ZM63.4262 78.0568C65.0412 78.0568 65.7042 79.2638 65.7382 80.2328H61.1142C61.1992 79.2298 61.8962 78.0568 63.4262 78.0568ZM69.2341 85.0098H71.0191V79.4168C71.3761 78.8388 72.3791 78.3288 73.1271 78.3288C73.3481 78.3288 73.5351 78.3458 73.6881 78.3798V76.6118C72.6171 76.6118 71.6311 77.2238 71.0191 78.0058V76.7988H69.2341V85.0098ZM9.91229 105.214C12.5473 105.214 14.1453 103.259 14.1453 100.896C14.1453 98.5498 12.5473 96.5948 9.91229 96.5948C7.31129 96.5948 5.69629 98.5498 5.69629 100.896C5.69629 103.259 7.31129 105.214 9.91229 105.214ZM9.91229 103.633C8.39929 103.633 7.54929 102.358 7.54929 100.896C7.54929 99.4508 8.39929 98.1758 9.91229 98.1758C11.4423 98.1758 12.2923 99.4508 12.2923 100.896C12.2923 102.358 11.4423 103.633 9.91229 103.633ZM21.4934 105.01H23.2784V99.2298C23.2784 97.5468 22.3944 96.5948 20.6264 96.5948C19.3344 96.5948 18.2804 97.2748 17.7364 97.9208V96.7988H15.9514V105.01H17.7364V99.2808C18.1444 98.7198 18.9264 98.1758 19.8444 98.1758C20.8474 98.1758 21.4934 98.6008 21.4934 99.8758V105.01ZM25.5969 105.01H27.3819V103.888C28.0109 104.704 28.9459 105.214 30.0169 105.214C32.1079 105.214 33.6549 103.616 33.6549 100.913C33.6549 98.2608 32.1249 96.5948 30.0169 96.5948C28.9799 96.5948 28.0279 97.0708 27.3819 97.9378V93.6708H25.5969V105.01ZM27.3819 102.545V99.2978C27.7729 98.6858 28.6569 98.1758 29.4899 98.1758C30.9179 98.1758 31.8189 99.3148 31.8189 100.913C31.8189 102.511 30.9179 103.633 29.4899 103.633C28.6569 103.633 27.7729 103.157 27.3819 102.545ZM39.1808 105.214C41.8158 105.214 43.4138 103.259 43.4138 100.896C43.4138 98.5498 41.8158 96.5948 39.1808 96.5948C36.5798 96.5948 34.9648 98.5498 34.9648 100.896C34.9648 103.259 36.5798 105.214 39.1808 105.214ZM39.1808 103.633C37.6678 103.633 36.8178 102.358 36.8178 100.896C36.8178 99.4508 37.6678 98.1758 39.1808 98.1758C40.7108 98.1758 41.5608 99.4508 41.5608 100.896C41.5608 102.358 40.7108 103.633 39.1808 103.633ZM50.235 105.01H52.02V99.5698C52.02 97.3598 50.422 96.5948 48.603 96.5948C47.294 96.5948 46.104 97.0198 45.152 97.9208L45.883 99.1618C46.597 98.4648 47.396 98.1248 48.314 98.1248C49.453 98.1248 50.235 98.7028 50.235 99.6548V100.879C49.64 100.182 48.688 99.8248 47.583 99.8248C46.24 99.8248 44.727 100.607 44.727 102.494C44.727 104.313 46.24 105.214 47.583 105.214C48.671 105.214 49.623 104.823 50.235 104.126V105.01ZM50.235 103.14C49.827 103.701 49.062 103.99 48.28 103.99C47.277 103.99 46.529 103.412 46.529 102.528C46.529 101.627 47.277 101.049 48.28 101.049C49.062 101.049 49.827 101.338 50.235 101.899V103.14ZM54.3342 105.01H56.1192V99.4168C56.4762 98.8388 57.4792 98.3288 58.2272 98.3288C58.4482 98.3288 58.6352 98.3458 58.7882 98.3798V96.6118C57.7172 96.6118 56.7312 97.2238 56.1192 98.0058V96.7988H54.3342V105.01ZM66.0078 105.01H67.7928V93.6708H66.0078V97.9378C65.3448 97.0708 64.3928 96.5948 63.3728 96.5948C61.2478 96.5948 59.7178 98.2608 59.7178 100.913C59.7178 103.616 61.2648 105.214 63.3728 105.214C64.4268 105.214 65.3788 104.704 66.0078 103.888V105.01ZM66.0078 102.545C65.5998 103.157 64.7328 103.633 63.8828 103.633C62.4718 103.633 61.5708 102.494 61.5708 100.913C61.5708 99.3148 62.4718 98.1758 63.8828 98.1758C64.7328 98.1758 65.5998 98.6688 66.0078 99.2808V102.545Z" fill="#202020"/>
</svg>
