<svg width="92" height="111" viewBox="0 0 92 111" fill="none" xmlns="http://www.w3.org/2000/svg">
<path opacity="0.4" d="M64.8334 18.75V31.25C64.8334 38.5417 60.6667 41.6667 54.4167 41.6667H36.6042C37.3334 40.4375 37.75 39.0209 37.75 37.5C37.75 32.8959 34.0209 29.1667 29.4167 29.1667C26.9167 29.1667 24.6875 30.2708 23.1667 32V18.75C23.1667 11.4584 27.3334 8.33337 33.5834 8.33337H54.4167C60.6667 8.33337 64.8334 11.4584 64.8334 18.75Z" fill="#3F75F3"/>
<path d="M44 30.2083C46.8765 30.2083 49.2084 27.8764 49.2084 25C49.2084 22.1235 46.8765 19.7916 44 19.7916C41.1235 19.7916 38.7917 22.1235 38.7917 25C38.7917 27.8764 41.1235 30.2083 44 30.2083Z" fill="#3F75F3"/>
<path d="M57.5417 30.7292C56.6875 30.7292 55.9792 30.0209 55.9792 29.1667V20.8334C55.9792 19.9792 56.6875 19.2709 57.5417 19.2709C58.3959 19.2709 59.1042 19.9792 59.1042 20.8334V29.1667C59.1042 30.0209 58.3959 30.7292 57.5417 30.7292Z" fill="#3F75F3"/>
<path d="M29.4166 29.1666C24.8125 29.1666 21.0833 32.8958 21.0833 37.5C21.0833 39.0625 21.5208 40.5416 22.2916 41.7916C23.7291 44.2083 26.375 45.8333 29.4166 45.8333C32.4583 45.8333 35.1042 44.2083 36.5417 41.7916C37.3125 40.5416 37.75 39.0625 37.75 37.5C37.75 32.8958 34.0208 29.1666 29.4166 29.1666ZM32.5208 39.0208H30.9791V40.6458C30.9791 41.5 30.2708 42.2083 29.4166 42.2083C28.5625 42.2083 27.8541 41.5 27.8541 40.6458V39.0208H26.3125C25.4583 39.0208 24.75 38.3124 24.75 37.4583C24.75 36.6041 25.4583 35.8958 26.3125 35.8958H27.8541V34.4167C27.8541 33.5625 28.5625 32.8542 29.4166 32.8542C30.2708 32.8542 30.9791 33.5625 30.9791 34.4167V35.8958H32.5208C33.375 35.8958 34.0833 36.6041 34.0833 37.4583C34.0833 38.3124 33.3958 39.0208 32.5208 39.0208Z" fill="#3F75F3"/>
<path d="M36.003 85.0098H34.014V75.4218H30.58V73.6708H39.437V75.4218H36.003V85.0098ZM46.4442 85.0098H44.6592V84.1088C44.0245 84.8454 43.1349 85.2138 41.9902 85.2138C41.2535 85.2138 40.5962 84.9701 40.0182 84.4828C39.4402 83.9954 39.1512 83.3324 39.1512 82.4938C39.1512 81.6098 39.4345 80.9411 40.0012 80.4878C40.5679 80.0344 41.2309 79.8078 41.9902 79.8078C43.1575 79.8078 44.0472 80.1591 44.6592 80.8618V79.6378C44.6592 79.1731 44.4779 78.8048 44.1152 78.5328C43.7639 78.2494 43.3049 78.1078 42.7382 78.1078C41.8089 78.1078 40.9985 78.4591 40.3072 79.1618L39.5592 77.9208C40.4772 77.0368 41.6275 76.5948 43.0102 76.5948C44.0189 76.5948 44.8405 76.8328 45.4752 77.3088C46.1212 77.7734 46.4442 78.5214 46.4442 79.5528V85.0098ZM42.7042 83.9898C43.5769 83.9898 44.2285 83.7064 44.6592 83.1398V81.8818C44.2285 81.3151 43.5769 81.0318 42.7042 81.0318C42.1942 81.0318 41.7692 81.1678 41.4292 81.4398C41.1005 81.7118 40.9362 82.0688 40.9362 82.5108C40.9362 82.9528 41.1005 83.3098 41.4292 83.5818C41.7692 83.8538 42.1942 83.9898 42.7042 83.9898ZM52.1071 88.3418C50.7131 88.3418 49.5627 87.9338 48.6561 87.1178L49.4891 85.8258C50.1124 86.5284 50.9851 86.8798 52.1071 86.8798C52.7871 86.8798 53.3594 86.6984 53.8241 86.3358C54.3001 85.9731 54.5381 85.3894 54.5381 84.5848V83.6498C53.8467 84.5678 52.9684 85.0268 51.9031 85.0268C50.8264 85.0268 49.9481 84.6528 49.2681 83.9048C48.5994 83.1568 48.2651 82.1254 48.2651 80.8108C48.2651 79.4961 48.5994 78.4648 49.2681 77.7168C49.9367 76.9688 50.8151 76.5948 51.9031 76.5948C52.9911 76.5948 53.8694 77.0424 54.5381 77.9378V76.7988H56.3231V84.5848C56.3231 85.2874 56.1984 85.8938 55.9491 86.4038C55.7111 86.9251 55.3767 87.3161 54.9461 87.5768C54.5267 87.8488 54.0847 88.0414 53.6201 88.1548C53.1554 88.2794 52.6511 88.3418 52.1071 88.3418ZM52.4301 83.4288C52.8381 83.4288 53.2347 83.3268 53.6201 83.1228C54.0167 82.9074 54.3227 82.6468 54.5381 82.3408V79.2638C54.3227 78.9578 54.0167 78.7028 53.6201 78.4988C53.2347 78.2834 52.8381 78.1758 52.4301 78.1758C51.7161 78.1758 51.1494 78.4194 50.7301 78.9068C50.3107 79.3828 50.1011 80.0174 50.1011 80.8108C50.1011 81.6041 50.3107 82.2388 50.7301 82.7148C51.1494 83.1908 51.7161 83.4288 52.4301 83.4288ZM10.4745 105.01H8.16252L5.66352 100.777H3.67452V105.01H1.68552V93.6708H6.66652C7.78852 93.6708 8.68952 93.9994 9.36952 94.6568C10.0495 95.3141 10.3895 96.1698 10.3895 97.2238C10.3895 98.1644 10.1232 98.9238 9.59052 99.5018C9.06918 100.08 8.43452 100.431 7.68652 100.556L10.4745 105.01ZM6.41152 99.0258C6.97818 99.0258 7.44285 98.8614 7.80552 98.5328C8.16818 98.1928 8.34952 97.7508 8.34952 97.2068C8.34952 96.6741 8.16818 96.2434 7.80552 95.9148C7.44285 95.5861 6.97818 95.4218 6.41152 95.4218H3.67452V99.0258H6.41152ZM15.6193 105.214C14.3613 105.214 13.3299 104.817 12.5253 104.024C11.7206 103.23 11.3183 102.188 11.3183 100.896C11.3183 99.6944 11.7093 98.6801 12.4913 97.8528C13.2846 97.0141 14.2819 96.5948 15.4833 96.5948C16.6959 96.5948 17.6706 97.0141 18.4073 97.8528C19.1439 98.6801 19.5123 99.7454 19.5123 101.049V101.491H13.1883C13.2563 102.137 13.5226 102.675 13.9873 103.106C14.4519 103.536 15.0526 103.752 15.7893 103.752C16.7413 103.752 17.5233 103.446 18.1353 102.834L18.9513 104.007C18.0899 104.811 16.9793 105.214 15.6193 105.214ZM17.7953 100.216C17.7613 99.6491 17.5459 99.1504 17.1493 98.7198C16.7639 98.2778 16.2029 98.0568 15.4663 98.0568C14.7636 98.0568 14.2139 98.2778 13.8173 98.7198C13.4206 99.1504 13.2053 99.6491 13.1713 100.216H17.7953ZM24.6232 108.342C23.2292 108.342 22.0788 107.934 21.1722 107.118L22.0052 105.826C22.6285 106.528 23.5012 106.88 24.6232 106.88C25.3032 106.88 25.8755 106.698 26.3402 106.336C26.8162 105.973 27.0542 105.389 27.0542 104.585V103.65C26.3628 104.568 25.4845 105.027 24.4192 105.027C23.3425 105.027 22.4642 104.653 21.7842 103.905C21.1155 103.157 20.7812 102.125 20.7812 100.811C20.7812 99.4961 21.1155 98.4648 21.7842 97.7168C22.4528 96.9688 23.3312 96.5948 24.4192 96.5948C25.5072 96.5948 26.3855 97.0424 27.0542 97.9378V96.7988H28.8392V104.585C28.8392 105.287 28.7145 105.894 28.4652 106.404C28.2272 106.925 27.8928 107.316 27.4622 107.577C27.0428 107.849 26.6008 108.041 26.1362 108.155C25.6715 108.279 25.1672 108.342 24.6232 108.342ZM24.9462 103.429C25.3542 103.429 25.7508 103.327 26.1362 103.123C26.5328 102.907 26.8388 102.647 27.0542 102.341V99.2638C26.8388 98.9578 26.5328 98.7028 26.1362 98.4988C25.7508 98.2834 25.3542 98.1758 24.9462 98.1758C24.2322 98.1758 23.6655 98.4194 23.2462 98.9068C22.8268 99.3828 22.6172 100.017 22.6172 100.811C22.6172 101.604 22.8268 102.239 23.2462 102.715C23.6655 103.191 24.2322 103.429 24.9462 103.429ZM32.8351 95.4728C32.6198 95.6881 32.3591 95.7958 32.0531 95.7958C31.7471 95.7958 31.4864 95.6881 31.2711 95.4728C31.0558 95.2574 30.9481 94.9968 30.9481 94.6908C30.9481 94.3848 31.0558 94.1241 31.2711 93.9088C31.4864 93.6934 31.7471 93.5858 32.0531 93.5858C32.3591 93.5858 32.6198 93.6934 32.8351 93.9088C33.0504 94.1241 33.1581 94.3848 33.1581 94.6908C33.1581 94.9968 33.0504 95.2574 32.8351 95.4728ZM32.9371 105.01H31.1521V96.7988H32.9371V105.01ZM38.0747 105.214C36.6127 105.214 35.4397 104.783 34.5557 103.922L35.3717 102.647C35.6777 102.964 36.0857 103.236 36.5957 103.463C37.117 103.678 37.6327 103.786 38.1427 103.786C38.664 103.786 39.0663 103.689 39.3497 103.497C39.633 103.293 39.7747 103.026 39.7747 102.698C39.7747 102.403 39.6047 102.176 39.2647 102.018C38.9247 101.848 38.511 101.717 38.0237 101.627C37.5363 101.525 37.049 101.406 36.5617 101.27C36.0743 101.122 35.6607 100.867 35.3207 100.505C34.9807 100.142 34.8107 99.6661 34.8107 99.0768C34.8107 98.3741 35.0997 97.7848 35.6777 97.3088C36.2557 96.8328 37.0433 96.5948 38.0407 96.5948C39.2987 96.5948 40.3583 96.9744 41.2197 97.7338L40.4717 98.9918C39.871 98.3344 39.0607 98.0058 38.0407 98.0058C37.5873 98.0058 37.219 98.1021 36.9357 98.2948C36.6637 98.4874 36.5277 98.7311 36.5277 99.0258C36.5277 99.2864 36.6977 99.4904 37.0377 99.6378C37.3777 99.7851 37.7913 99.9098 38.2787 100.012C38.766 100.102 39.2533 100.221 39.7407 100.369C40.228 100.516 40.6417 100.782 40.9817 101.168C41.3217 101.553 41.4917 102.046 41.4917 102.647C41.4917 103.406 41.1913 104.024 40.5907 104.5C39.99 104.976 39.1513 105.214 38.0747 105.214ZM45.7532 105.214C44.3479 105.214 43.6452 104.505 43.6452 103.089V98.3458H42.2852V96.7988H43.6452V94.5548H45.4302V96.7988H47.0962V98.3458H45.4302V102.647C45.4302 102.941 45.4982 103.179 45.6342 103.361C45.7702 103.542 45.9629 103.633 46.2122 103.633C46.5522 103.633 46.8129 103.531 46.9942 103.327L47.4192 104.687C47.0226 105.038 46.4672 105.214 45.7532 105.214ZM50.4849 105.01H48.6999V96.7988H50.4849V97.9888C50.8136 97.5808 51.2103 97.2464 51.6749 96.9858C52.1509 96.7251 52.6439 96.5948 53.1539 96.5948V98.3628C53.0066 98.3288 52.8253 98.3118 52.6099 98.3118C52.2246 98.3118 51.8166 98.4251 51.3859 98.6518C50.9666 98.8671 50.6663 99.1221 50.4849 99.4168V105.01ZM61.4105 105.01H59.6255V104.109C58.9908 104.845 58.1012 105.214 56.9565 105.214C56.2198 105.214 55.5625 104.97 54.9845 104.483C54.4065 103.995 54.1175 103.332 54.1175 102.494C54.1175 101.61 54.4008 100.941 54.9675 100.488C55.5342 100.034 56.1972 99.8078 56.9565 99.8078C58.1238 99.8078 59.0135 100.159 59.6255 100.862V99.6378C59.6255 99.1731 59.4442 98.8048 59.0815 98.5328C58.7302 98.2494 58.2712 98.1078 57.7045 98.1078C56.7752 98.1078 55.9648 98.4591 55.2735 99.1618L54.5255 97.9208C55.4435 97.0368 56.5938 96.5948 57.9765 96.5948C58.9852 96.5948 59.8068 96.8328 60.4415 97.3088C61.0875 97.7734 61.4105 98.5214 61.4105 99.5528V105.01ZM57.6705 103.99C58.5432 103.99 59.1948 103.706 59.6255 103.14V101.882C59.1948 101.315 58.5432 101.032 57.6705 101.032C57.1605 101.032 56.7355 101.168 56.3955 101.44C56.0668 101.712 55.9025 102.069 55.9025 102.511C55.9025 102.953 56.0668 103.31 56.3955 103.582C56.7355 103.854 57.1605 103.99 57.6705 103.99ZM66.2064 105.214C64.801 105.214 64.0984 104.505 64.0984 103.089V98.3458H62.7384V96.7988H64.0984V94.5548H65.8834V96.7988H67.5494V98.3458H65.8834V102.647C65.8834 102.941 65.9514 103.179 66.0874 103.361C66.2234 103.542 66.416 103.633 66.6654 103.633C67.0054 103.633 67.266 103.531 67.4474 103.327L67.8724 104.687C67.4757 105.038 66.9204 105.214 66.2064 105.214ZM70.8361 95.4728C70.6207 95.6881 70.3601 95.7958 70.0541 95.7958C69.7481 95.7958 69.4874 95.6881 69.2721 95.4728C69.0567 95.2574 68.9491 94.9968 68.9491 94.6908C68.9491 94.3848 69.0567 94.1241 69.2721 93.9088C69.4874 93.6934 69.7481 93.5858 70.0541 93.5858C70.3601 93.5858 70.6207 93.6934 70.8361 93.9088C71.0514 94.1241 71.1591 94.3848 71.1591 94.6908C71.1591 94.9968 71.0514 95.2574 70.8361 95.4728ZM70.9381 105.01H69.1531V96.7988H70.9381V105.01ZM80.0367 103.973C79.266 104.8 78.246 105.214 76.9767 105.214C75.7073 105.214 74.6873 104.8 73.9167 103.973C73.146 103.134 72.7607 102.108 72.7607 100.896C72.7607 99.6718 73.146 98.6518 73.9167 97.8358C74.6873 97.0084 75.7073 96.5948 76.9767 96.5948C78.246 96.5948 79.266 97.0084 80.0367 97.8358C80.8073 98.6518 81.1927 99.6718 81.1927 100.896C81.1927 102.108 80.8073 103.134 80.0367 103.973ZM76.9767 103.633C77.7133 103.633 78.2913 103.372 78.7107 102.851C79.13 102.318 79.3397 101.666 79.3397 100.896C79.3397 100.136 79.13 99.4961 78.7107 98.9748C78.2913 98.4421 77.7133 98.1758 76.9767 98.1758C76.2513 98.1758 75.6733 98.4421 75.2427 98.9748C74.8233 99.4961 74.6137 100.136 74.6137 100.896C74.6137 101.666 74.8233 102.318 75.2427 102.851C75.6733 103.372 76.2513 103.633 76.9767 103.633ZM90.3594 105.01H88.5744V99.8758C88.5744 99.2638 88.427 98.8274 88.1324 98.5668C87.849 98.3061 87.441 98.1758 86.9084 98.1758C86.489 98.1758 86.0924 98.2834 85.7184 98.4988C85.3444 98.7028 85.0384 98.9578 84.8004 99.2638V105.01H83.0154V96.7988H84.8004V97.9038C85.1064 97.5411 85.5144 97.2351 86.0244 96.9858C86.5457 96.7251 87.1067 96.5948 87.7074 96.5948C88.58 96.5948 89.2374 96.8214 89.6794 97.2748C90.1327 97.7281 90.3594 98.3798 90.3594 99.2298V105.01Z" fill="#202020"/>
</svg>
