<svg width="100" height="110" viewBox="0 0 100 110" fill="none" xmlns="http://www.w3.org/2000/svg">
<path opacity="0.4" fill-rule="evenodd" clip-rule="evenodd" d="M69.8333 29.6875C70.6963 29.6875 71.3958 30.3871 71.3958 31.25C71.3958 40.1754 64.1754 47.3958 55.25 47.3958C54.6871 47.3958 54.1677 47.093 53.8903 46.6032C53.613 46.1133 53.6205 45.5121 53.9102 45.0294L56.0976 41.3836C56.5416 40.6436 57.5014 40.4037 58.2414 40.8477C58.9813 41.2916 59.2213 42.2514 58.7773 42.9914L58.2121 43.9335C63.981 42.5951 68.2708 37.4304 68.2708 31.25C68.2708 30.3871 68.9704 29.6875 69.8333 29.6875Z" fill="#3F75F3"/>
<path opacity="0.4" fill-rule="evenodd" clip-rule="evenodd" d="M39.7879 6.06649C34.019 7.40488 29.7292 12.5696 29.7292 18.75C29.7292 19.6129 29.0296 20.3125 28.1667 20.3125C27.3037 20.3125 26.6042 19.6129 26.6042 18.75C26.6042 9.82451 33.8246 2.60413 42.75 2.60413C43.3129 2.60413 43.8324 2.90693 44.1097 3.39678C44.3871 3.88664 44.3795 4.48781 44.0899 4.97052L41.9024 8.61635C41.4584 9.35632 40.4986 9.59627 39.7587 9.1523C39.0187 8.70832 38.7787 7.74854 39.2227 7.00857L39.7879 6.06649Z" fill="#3F75F3"/>
<path opacity="0.4" d="M49 32.7083V33.9792H28.1667V32.7083C28.1667 29.0417 29.0834 28.125 32.7917 28.125H44.375C48.0834 28.125 49 29.0417 49 32.7083Z" fill="#3F75F3"/>
<path d="M28.1667 33.9791V37.1041V41.25C28.1667 44.9166 29.0834 45.8333 32.7917 45.8333H44.375C48.0834 45.8333 49 44.9166 49 41.25V37.1041V33.9791H28.1667Z" fill="#3F75F3"/>
<path opacity="0.4" d="M69.8333 8.74996V10.0208H49V8.74996C49 5.08329 49.9167 4.16663 53.625 4.16663H65.2083C68.9167 4.16663 69.8333 5.08329 69.8333 8.74996Z" fill="#3F75F3"/>
<path d="M49 10.0209V13.1459V17.2917C49 20.9584 49.9167 21.875 53.625 21.875H65.2083C68.9167 21.875 69.8333 20.9584 69.8333 17.2917V13.1459V10.0209H49Z" fill="#3F75F3"/>
<path d="M40.003 84.0098H38.014V74.4218H34.58V72.6708H43.437V74.4218H40.003V84.0098ZM50.4442 84.0098H48.6592V83.1088C48.0245 83.8454 47.1349 84.2138 45.9902 84.2138C45.2535 84.2138 44.5962 83.9701 44.0182 83.4828C43.4402 82.9954 43.1512 82.3324 43.1512 81.4938C43.1512 80.6098 43.4345 79.9411 44.0012 79.4878C44.5679 79.0344 45.2309 78.8078 45.9902 78.8078C47.1575 78.8078 48.0472 79.1591 48.6592 79.8618V78.6378C48.6592 78.1731 48.4779 77.8048 48.1152 77.5328C47.7639 77.2494 47.3049 77.1078 46.7382 77.1078C45.8089 77.1078 44.9985 77.4591 44.3072 78.1618L43.5592 76.9208C44.4772 76.0368 45.6275 75.5948 47.0102 75.5948C48.0189 75.5948 48.8405 75.8328 49.4752 76.3088C50.1212 76.7734 50.4442 77.5214 50.4442 78.5528V84.0098ZM46.7042 82.9898C47.5769 82.9898 48.2285 82.7064 48.6592 82.1398V80.8818C48.2285 80.3151 47.5769 80.0318 46.7042 80.0318C46.1942 80.0318 45.7692 80.1678 45.4292 80.4398C45.1005 80.7118 44.9362 81.0688 44.9362 81.5108C44.9362 81.9528 45.1005 82.3098 45.4292 82.5818C45.7692 82.8538 46.1942 82.9898 46.7042 82.9898ZM56.1071 87.3418C54.7131 87.3418 53.5627 86.9338 52.6561 86.1178L53.4891 84.8258C54.1124 85.5284 54.9851 85.8798 56.1071 85.8798C56.7871 85.8798 57.3594 85.6984 57.8241 85.3358C58.3001 84.9731 58.5381 84.3894 58.5381 83.5848V82.6498C57.8467 83.5678 56.9684 84.0268 55.9031 84.0268C54.8264 84.0268 53.9481 83.6528 53.2681 82.9048C52.5994 82.1568 52.2651 81.1254 52.2651 79.8108C52.2651 78.4961 52.5994 77.4648 53.2681 76.7168C53.9367 75.9688 54.8151 75.5948 55.9031 75.5948C56.9911 75.5948 57.8694 76.0424 58.5381 76.9378V75.7988H60.3231V83.5848C60.3231 84.2874 60.1984 84.8938 59.9491 85.4038C59.7111 85.9251 59.3767 86.3161 58.9461 86.5768C58.5267 86.8488 58.0847 87.0414 57.6201 87.1548C57.1554 87.2794 56.6511 87.3418 56.1071 87.3418ZM56.4301 82.4288C56.8381 82.4288 57.2347 82.3268 57.6201 82.1228C58.0167 81.9074 58.3227 81.6468 58.5381 81.3408V78.2638C58.3227 77.9578 58.0167 77.7028 57.6201 77.4988C57.2347 77.2834 56.8381 77.1758 56.4301 77.1758C55.7161 77.1758 55.1494 77.4194 54.7301 77.9068C54.3107 78.3828 54.1011 79.0174 54.1011 79.8108C54.1011 80.6041 54.3107 81.2388 54.7301 81.7148C55.1494 82.1908 55.7161 82.4288 56.4301 82.4288ZM10.3075 104.01H7.99552L5.49652 99.7768H3.50752V104.01H1.51852V92.6708H6.49952C7.62152 92.6708 8.52252 92.9994 9.20252 93.6568C9.88252 94.3141 10.2225 95.1698 10.2225 96.2238C10.2225 97.1644 9.95619 97.9238 9.42352 98.5018C8.90219 99.0798 8.26752 99.4311 7.51952 99.5558L10.3075 104.01ZM6.24452 98.0258C6.81119 98.0258 7.27586 97.8614 7.63852 97.5328C8.00119 97.1928 8.18252 96.7508 8.18252 96.2068C8.18252 95.6741 8.00119 95.2434 7.63852 94.9148C7.27586 94.5861 6.81119 94.4218 6.24452 94.4218H3.50752V98.0258H6.24452ZM15.4523 104.214C14.1943 104.214 13.1629 103.817 12.3583 103.024C11.5536 102.23 11.1513 101.188 11.1513 99.8958C11.1513 98.6944 11.5423 97.6801 12.3243 96.8528C13.1176 96.0141 14.1149 95.5948 15.3163 95.5948C16.5289 95.5948 17.5036 96.0141 18.2403 96.8528C18.9769 97.6801 19.3453 98.7454 19.3453 100.049V100.491H13.0213C13.0893 101.137 13.3556 101.675 13.8203 102.106C14.2849 102.536 14.8856 102.752 15.6223 102.752C16.5743 102.752 17.3563 102.446 17.9683 101.834L18.7843 103.007C17.9229 103.811 16.8123 104.214 15.4523 104.214ZM17.6283 99.2158C17.5943 98.6491 17.3789 98.1504 16.9823 97.7198C16.5969 97.2778 16.0359 97.0568 15.2993 97.0568C14.5966 97.0568 14.0469 97.2778 13.6503 97.7198C13.2536 98.1504 13.0383 98.6491 13.0043 99.2158H17.6283ZM25.5272 104.214C24.4732 104.214 23.5948 103.766 22.8922 102.871V107.138H21.1072V95.7988H22.8922V96.9208C23.5608 96.0368 24.4392 95.5948 25.5272 95.5948C26.6038 95.5948 27.4765 95.9801 28.1452 96.7508C28.8252 97.5214 29.1652 98.5698 29.1652 99.8958C29.1652 101.222 28.8252 102.276 28.1452 103.058C27.4765 103.828 26.6038 104.214 25.5272 104.214ZM25.0002 102.633C25.7028 102.633 26.2638 102.378 26.6832 101.868C27.1138 101.358 27.3292 100.7 27.3292 99.8958C27.3292 99.0911 27.1138 98.4394 26.6832 97.9408C26.2638 97.4308 25.7028 97.1758 25.0002 97.1758C24.5922 97.1758 24.1898 97.2834 23.7932 97.4988C23.3965 97.7028 23.0962 97.9578 22.8922 98.2638V101.511C23.0962 101.828 23.3965 102.094 23.7932 102.31C24.1898 102.525 24.5922 102.633 25.0002 102.633ZM32.7369 104.01H30.9519V92.6708H32.7369V104.01ZM41.8695 104.01H40.0845V103.109C39.4498 103.845 38.5602 104.214 37.4155 104.214C36.6788 104.214 36.0215 103.97 35.4435 103.483C34.8655 102.995 34.5765 102.332 34.5765 101.494C34.5765 100.61 34.8598 99.9411 35.4265 99.4878C35.9932 99.0344 36.6562 98.8078 37.4155 98.8078C38.5828 98.8078 39.4725 99.1591 40.0845 99.8618V98.6378C40.0845 98.1731 39.9032 97.8048 39.5405 97.5328C39.1892 97.2494 38.7302 97.1078 38.1635 97.1078C37.2342 97.1078 36.4238 97.4591 35.7325 98.1618L34.9845 96.9208C35.9025 96.0368 37.0528 95.5948 38.4355 95.5948C39.4442 95.5948 40.2658 95.8328 40.9005 96.3088C41.5465 96.7734 41.8695 97.5214 41.8695 98.5528V104.01ZM38.1295 102.99C39.0022 102.99 39.6538 102.706 40.0845 102.14V100.882C39.6538 100.315 39.0022 100.032 38.1295 100.032C37.6195 100.032 37.1945 100.168 36.8545 100.44C36.5258 100.712 36.3615 101.069 36.3615 101.511C36.3615 101.953 36.5258 102.31 36.8545 102.582C37.1945 102.854 37.6195 102.99 38.1295 102.99ZM47.9233 104.214C46.688 104.214 45.6737 103.806 44.8803 102.99C44.087 102.174 43.6903 101.142 43.6903 99.8958C43.6903 98.6491 44.087 97.6234 44.8803 96.8188C45.6737 96.0028 46.688 95.5948 47.9233 95.5948C49.2947 95.5948 50.343 96.0821 51.0683 97.0568L49.8953 98.1278C49.442 97.4931 48.813 97.1758 48.0083 97.1758C47.2717 97.1758 46.671 97.4308 46.2063 97.9408C45.753 98.4394 45.5263 99.0911 45.5263 99.8958C45.5263 100.7 45.753 101.358 46.2063 101.868C46.671 102.378 47.2717 102.633 48.0083 102.633C48.8017 102.633 49.4307 102.304 49.8953 101.647L51.0683 102.752C50.3317 103.726 49.2833 104.214 47.9233 104.214ZM56.4581 104.214C55.2001 104.214 54.1688 103.817 53.3641 103.024C52.5595 102.23 52.1571 101.188 52.1571 99.8958C52.1571 98.6944 52.5481 97.6801 53.3301 96.8528C54.1235 96.0141 55.1208 95.5948 56.3221 95.5948C57.5348 95.5948 58.5095 96.0141 59.2461 96.8528C59.9828 97.6801 60.3511 98.7454 60.3511 100.049V100.491H54.0271C54.0951 101.137 54.3615 101.675 54.8261 102.106C55.2908 102.536 55.8915 102.752 56.6281 102.752C57.5801 102.752 58.3621 102.446 58.9741 101.834L59.7901 103.007C58.9288 103.811 57.8181 104.214 56.4581 104.214ZM58.6341 99.2158C58.6001 98.6491 58.3848 98.1504 57.9881 97.7198C57.6028 97.2778 57.0418 97.0568 56.3051 97.0568C55.6025 97.0568 55.0528 97.2778 54.6561 97.7198C54.2595 98.1504 54.0441 98.6491 54.0101 99.2158H58.6341ZM73.979 104.01H72.194V98.6548C72.194 97.6688 71.7407 97.1758 70.834 97.1758C70.46 97.1758 70.0974 97.2834 69.746 97.4988C69.3947 97.7141 69.1227 97.9691 68.93 98.2638V104.01H67.145V98.6548C67.145 97.6688 66.6974 97.1758 65.802 97.1758C65.428 97.1758 65.0654 97.2834 64.714 97.4988C64.374 97.7141 64.102 97.9691 63.898 98.2638V104.01H62.113V95.7988H63.898V96.9038C64.1247 96.5978 64.4874 96.3031 64.986 96.0198C65.4847 95.7364 66.0174 95.5948 66.584 95.5948C67.1734 95.5948 67.6607 95.7308 68.046 96.0028C68.4314 96.2634 68.692 96.6261 68.828 97.0908C69.0774 96.6941 69.457 96.3484 69.967 96.0538C70.4884 95.7478 71.038 95.5948 71.616 95.5948C72.3754 95.5948 72.959 95.8044 73.367 96.2238C73.775 96.6431 73.979 97.2608 73.979 98.0768V104.01ZM80.0988 104.214C78.8408 104.214 77.8094 103.817 77.0048 103.024C76.2001 102.23 75.7978 101.188 75.7978 99.8958C75.7978 98.6944 76.1888 97.6801 76.9708 96.8528C77.7641 96.0141 78.7614 95.5948 79.9628 95.5948C81.1754 95.5948 82.1501 96.0141 82.8868 96.8528C83.6234 97.6801 83.9918 98.7454 83.9918 100.049V100.491H77.6678C77.7358 101.137 78.0021 101.675 78.4668 102.106C78.9314 102.536 79.5321 102.752 80.2688 102.752C81.2208 102.752 82.0028 102.446 82.6148 101.834L83.4308 103.007C82.5694 103.811 81.4588 104.214 80.0988 104.214ZM82.2748 99.2158C82.2408 98.6491 82.0254 98.1504 81.6288 97.7198C81.2434 97.2778 80.6824 97.0568 79.9458 97.0568C79.2431 97.0568 78.6934 97.2778 78.2968 97.7198C77.9001 98.1504 77.6848 98.6491 77.6508 99.2158H82.2748ZM93.0977 104.01H91.3127V98.8758C91.3127 98.2638 91.1653 97.8274 90.8707 97.5668C90.5873 97.3061 90.1793 97.1758 89.6467 97.1758C89.2273 97.1758 88.8307 97.2834 88.4567 97.4988C88.0827 97.7028 87.7767 97.9578 87.5387 98.2638V104.01H85.7537V95.7988H87.5387V96.9038C87.8447 96.5411 88.2527 96.2351 88.7627 95.9858C89.284 95.7251 89.845 95.5948 90.4457 95.5948C91.3183 95.5948 91.9757 95.8214 92.4177 96.2748C92.871 96.7281 93.0977 97.3798 93.0977 98.2298V104.01ZM97.8978 104.214C96.4924 104.214 95.7898 103.505 95.7898 102.089V97.3458H94.4298V95.7988H95.7898V93.5548H97.5748V95.7988H99.2408V97.3458H97.5748V101.647C97.5748 101.941 97.6428 102.179 97.7788 102.361C97.9148 102.542 98.1074 102.633 98.3568 102.633C98.6968 102.633 98.9574 102.531 99.1388 102.327L99.5638 103.687C99.1671 104.038 98.6118 104.214 97.8978 104.214Z" fill="#202020"/>
</svg>
