<svg width="79" height="109" viewBox="0 0 79 109" fill="none" xmlns="http://www.w3.org/2000/svg">
<path d="M39.1458 18.6459C39.0625 18.6459 38.9375 18.6459 38.8333 18.6459C36.6458 18.5625 34.9166 16.7917 34.9166 14.5834C34.9166 12.3334 36.7291 10.5209 38.9791 10.5209C41.2291 10.5209 43.0416 12.3542 43.0416 14.5834C43.0625 16.7917 41.3333 18.5834 39.1458 18.6459Z" fill="#3F75F3"/>
<path d="M33.2708 24.9167C30.5 26.7709 30.5 29.7917 33.2708 31.6459C36.4166 33.7501 41.5833 33.7501 44.7291 31.6459C47.5 29.7917 47.5 26.7709 44.7291 24.9167C41.5833 22.8334 36.4375 22.8334 33.2708 24.9167Z" fill="#3F75F3"/>
<path opacity="0.4" d="M51.5 4.16663H26.5C23.0417 4.16663 20.25 6.93746 20.25 10.3541V33.0833C20.25 36.5 23.0417 39.2708 26.5 39.2708H28.0833C29.75 39.2708 31.3333 39.9166 32.5 41.0833L36.0625 44.6041C37.6875 46.2083 40.3333 46.2083 41.9583 44.6041L45.5208 41.0833C46.6875 39.9166 48.2917 39.2708 49.9375 39.2708H51.5C54.9583 39.2708 57.75 36.5 57.75 33.0833V10.3541C57.75 6.93746 54.9583 4.16663 51.5 4.16663ZM39 10.5208C41.25 10.5208 43.0625 12.3541 43.0625 14.5833C43.0625 16.7916 41.3125 18.5625 39.1458 18.6458C39.0625 18.6458 38.9375 18.6458 38.8333 18.6458C36.6458 18.5625 34.9167 16.7916 34.9167 14.5833C34.9375 12.3541 36.75 10.5208 39 10.5208ZM44.7292 31.6458C41.5833 33.75 36.4167 33.75 33.2708 31.6458C30.5 29.8125 30.5 26.7708 33.2708 24.9166C36.4375 22.8125 41.6042 22.8125 44.7292 24.9166C47.5 26.7708 47.5 29.7916 44.7292 31.6458Z" fill="#3F75F3"/>
<path d="M6.96771 83.2138C5.26771 83.2138 3.85104 82.6698 2.71771 81.5818C1.58438 80.4824 1.01771 79.0714 1.01771 77.3488C1.01771 75.6261 1.58438 74.2208 2.71771 73.1328C3.85104 72.0334 5.26771 71.4838 6.96771 71.4838C8.96238 71.4838 10.4754 72.3281 11.5067 74.0168L9.82371 74.9008C9.54038 74.4134 9.13804 74.0168 8.61671 73.7108C8.10671 73.4048 7.55704 73.2518 6.96771 73.2518C5.84571 73.2518 4.91071 73.6371 4.16271 74.4078C3.42604 75.1784 3.05771 76.1588 3.05771 77.3488C3.05771 78.5274 3.42604 79.5078 4.16271 80.2898C4.91071 81.0604 5.84571 81.4458 6.96771 81.4458C7.55704 81.4458 8.10671 81.2928 8.61671 80.9868C9.13804 80.6694 9.54038 80.2728 9.82371 79.7968L11.5237 80.6468C10.4357 82.3581 8.91704 83.2138 6.96771 83.2138ZM20.3746 83.0098H18.5896V81.9218C17.8189 82.7831 16.8556 83.2138 15.6996 83.2138C14.8269 83.2138 14.1639 82.9928 13.7106 82.5508C13.2686 82.0974 13.0476 81.4514 13.0476 80.6128V74.7988H14.8326V79.9498C14.8326 80.5618 14.9743 80.9981 15.2576 81.2588C15.5409 81.5081 15.9546 81.6328 16.4986 81.6328C16.9179 81.6328 17.3146 81.5308 17.6886 81.3268C18.0626 81.1114 18.3629 80.8564 18.5896 80.5618V74.7988H20.3746V83.0098ZM25.5151 83.2138C24.0531 83.2138 22.8801 82.7831 21.9961 81.9218L22.8121 80.6468C23.1181 80.9641 23.5261 81.2361 24.0361 81.4628C24.5574 81.6781 25.0731 81.7858 25.5831 81.7858C26.1044 81.7858 26.5068 81.6894 26.7901 81.4968C27.0734 81.2928 27.2151 81.0264 27.2151 80.6978C27.2151 80.4031 27.0451 80.1764 26.7051 80.0178C26.3651 79.8478 25.9514 79.7174 25.4641 79.6268C24.9768 79.5248 24.4894 79.4058 24.0021 79.2698C23.5148 79.1224 23.1011 78.8674 22.7611 78.5048C22.4211 78.1421 22.2511 77.6661 22.2511 77.0768C22.2511 76.3741 22.5401 75.7848 23.1181 75.3088C23.6961 74.8328 24.4838 74.5948 25.4811 74.5948C26.7391 74.5948 27.7988 74.9744 28.6601 75.7338L27.9121 76.9918C27.3114 76.3344 26.5011 76.0058 25.4811 76.0058C25.0278 76.0058 24.6594 76.1021 24.3761 76.2948C24.1041 76.4874 23.9681 76.7311 23.9681 77.0258C23.9681 77.2864 24.1381 77.4904 24.4781 77.6378C24.8181 77.7851 25.2318 77.9098 25.7191 78.0118C26.2064 78.1024 26.6938 78.2214 27.1811 78.3688C27.6684 78.5161 28.0821 78.7824 28.4221 79.1678C28.7621 79.5531 28.9321 80.0461 28.9321 80.6468C28.9321 81.4061 28.6318 82.0238 28.0311 82.4998C27.4304 82.9758 26.5918 83.2138 25.5151 83.2138ZM33.1937 83.2138C31.7883 83.2138 31.0857 82.5054 31.0857 81.0888V76.3458H29.7257V74.7988H31.0857V72.5548H32.8707V74.7988H34.5367V76.3458H32.8707V80.6468C32.8707 80.9414 32.9387 81.1794 33.0747 81.3608C33.2107 81.5421 33.4033 81.6328 33.6527 81.6328C33.9927 81.6328 34.2533 81.5308 34.4347 81.3268L34.8597 82.6868C34.463 83.0381 33.9077 83.2138 33.1937 83.2138ZM42.9234 81.9728C42.1527 82.8001 41.1327 83.2138 39.8634 83.2138C38.594 83.2138 37.574 82.8001 36.8034 81.9728C36.0327 81.1341 35.6474 80.1084 35.6474 78.8958C35.6474 77.6718 36.0327 76.6518 36.8034 75.8358C37.574 75.0084 38.594 74.5948 39.8634 74.5948C41.1327 74.5948 42.1527 75.0084 42.9234 75.8358C43.694 76.6518 44.0794 77.6718 44.0794 78.8958C44.0794 80.1084 43.694 81.1341 42.9234 81.9728ZM39.8634 81.6328C40.6 81.6328 41.178 81.3721 41.5974 80.8508C42.0167 80.3181 42.2264 79.6664 42.2264 78.8958C42.2264 78.1364 42.0167 77.4961 41.5974 76.9748C41.178 76.4421 40.6 76.1758 39.8634 76.1758C39.138 76.1758 38.56 76.4421 38.1294 76.9748C37.71 77.4961 37.5004 78.1364 37.5004 78.8958C37.5004 79.6664 37.71 80.3181 38.1294 80.8508C38.56 81.3721 39.138 81.6328 39.8634 81.6328ZM57.7681 83.0098H55.9831V77.6548C55.9831 76.6688 55.5298 76.1758 54.6231 76.1758C54.2491 76.1758 53.8864 76.2834 53.5351 76.4988C53.1838 76.7141 52.9118 76.9691 52.7191 77.2638V83.0098H50.9341V77.6548C50.9341 76.6688 50.4864 76.1758 49.5911 76.1758C49.2171 76.1758 48.8544 76.2834 48.5031 76.4988C48.1631 76.7141 47.8911 76.9691 47.6871 77.2638V83.0098H45.9021V74.7988H47.6871V75.9038C47.9138 75.5978 48.2764 75.3031 48.7751 75.0198C49.2738 74.7364 49.8064 74.5948 50.3731 74.5948C50.9624 74.5948 51.4498 74.7308 51.8351 75.0028C52.2204 75.2634 52.4811 75.6261 52.6171 76.0908C52.8664 75.6941 53.2461 75.3484 53.7561 75.0538C54.2774 74.7478 54.8271 74.5948 55.4051 74.5948C56.1644 74.5948 56.7481 74.8044 57.1561 75.2238C57.5641 75.6431 57.7681 76.2608 57.7681 77.0768V83.0098ZM63.8878 83.2138C62.6298 83.2138 61.5985 82.8171 60.7938 82.0238C59.9892 81.2304 59.5868 80.1878 59.5868 78.8958C59.5868 77.6944 59.9778 76.6801 60.7598 75.8528C61.5532 75.0141 62.5505 74.5948 63.7518 74.5948C64.9645 74.5948 65.9392 75.0141 66.6758 75.8528C67.4125 76.6801 67.7808 77.7454 67.7808 79.0488V79.4908H61.4568C61.5248 80.1368 61.7912 80.6751 62.2558 81.1058C62.7205 81.5364 63.3212 81.7518 64.0578 81.7518C65.0098 81.7518 65.7918 81.4458 66.4038 80.8338L67.2198 82.0068C66.3585 82.8114 65.2478 83.2138 63.8878 83.2138ZM66.0638 78.2158C66.0298 77.6491 65.8145 77.1504 65.4178 76.7198C65.0325 76.2778 64.4715 76.0568 63.7348 76.0568C63.0322 76.0568 62.4825 76.2778 62.0858 76.7198C61.6892 77.1504 61.4738 77.6491 61.4398 78.2158H66.0638ZM71.3277 83.0098H69.5427V74.7988H71.3277V75.9888C71.6564 75.5808 72.0531 75.2464 72.5177 74.9858C72.9937 74.7251 73.4867 74.5948 73.9967 74.5948V76.3628C73.8494 76.3288 73.6681 76.3118 73.4527 76.3118C73.0674 76.3118 72.6594 76.4251 72.2287 76.6518C71.8094 76.8671 71.5091 77.1221 71.3277 77.4168V83.0098ZM28.1613 103.01H26.1723V91.6708H28.1613V103.01ZM37.8647 103.01H36.0797V97.8758C36.0797 97.2638 35.9324 96.8274 35.6377 96.5668C35.3544 96.3061 34.9464 96.1758 34.4137 96.1758C33.9944 96.1758 33.5977 96.2834 33.2237 96.4988C32.8497 96.7028 32.5437 96.9578 32.3057 97.2638V103.01H30.5207V94.7988H32.3057V95.9038C32.6117 95.5411 33.0197 95.2351 33.5297 94.9858C34.0511 94.7251 34.6121 94.5948 35.2127 94.5948C36.0854 94.5948 36.7427 94.8214 37.1847 95.2748C37.6381 95.7281 37.8647 96.3798 37.8647 97.2298V103.01ZM42.4099 103.01H40.6249V96.3458H39.2649V94.7988H40.6249V94.3398C40.6249 93.4558 40.8572 92.7644 41.3219 92.2658C41.7979 91.7558 42.4269 91.5008 43.2089 91.5008C44.0815 91.5008 44.7389 91.7388 45.1809 92.2148L44.4839 93.3198C44.2232 93.0818 43.9115 92.9628 43.5489 92.9628C42.7895 92.9628 42.4099 93.4218 42.4099 94.3398V94.7988H44.0759V96.3458H42.4099V103.01ZM52.2119 101.973C51.4413 102.8 50.4213 103.214 49.1519 103.214C47.8826 103.214 46.8626 102.8 46.0919 101.973C45.3213 101.134 44.9359 100.108 44.9359 98.8958C44.9359 97.6718 45.3213 96.6518 46.0919 95.8358C46.8626 95.0084 47.8826 94.5948 49.1519 94.5948C50.4213 94.5948 51.4413 95.0084 52.2119 95.8358C52.9826 96.6518 53.3679 97.6718 53.3679 98.8958C53.3679 100.108 52.9826 101.134 52.2119 101.973ZM49.1519 101.633C49.8886 101.633 50.4666 101.372 50.8859 100.851C51.3053 100.318 51.5149 99.6664 51.5149 98.8958C51.5149 98.1364 51.3053 97.4961 50.8859 96.9748C50.4666 96.4421 49.8886 96.1758 49.1519 96.1758C48.4266 96.1758 47.8486 96.4421 47.4179 96.9748C46.9986 97.4961 46.7889 98.1364 46.7889 98.8958C46.7889 99.6664 46.9986 100.318 47.4179 100.851C47.8486 101.372 48.4266 101.633 49.1519 101.633Z" fill="#202020"/>
</svg>
