<svg width="75" height="111" viewBox="0 0 75 111" fill="none" xmlns="http://www.w3.org/2000/svg">
<path opacity="0.4" d="M29.625 4.5L18.1667 8.79166C15.9792 9.60416 14.1875 12.2083 14.1875 14.5416V31.4167C14.1875 33.1042 15.2917 35.3333 16.6458 36.3333L28.1042 44.8958C30.125 46.4167 33.4375 46.4167 35.4583 44.8958L46.9167 36.3333C48.2709 35.3125 49.375 33.1042 49.375 31.4167V14.5416C49.375 12.2083 47.5834 9.60416 45.3959 8.79166L33.9375 4.5C32.75 4.0625 30.8125 4.0625 29.625 4.5Z" fill="#3F75F3"/>
<path d="M50.125 14.0834H35.8542C35.4375 14.0834 35.0417 14.1042 34.6667 14.1042C31.0833 14.3126 30.125 15.6251 30.125 19.7084V21.3334C30.125 21.7476 30.4608 22.0834 30.875 22.0834H55.0833C55.4975 22.0834 55.8333 21.7476 55.8333 21.3334V19.7084C55.8333 15.2084 54.6875 14.0834 50.125 14.0834Z" fill="#3F75F3"/>
<path d="M30.8958 24.375C30.4816 24.375 30.1458 24.7108 30.1458 25.125V30.2917C30.1458 34.7917 31.2917 35.9375 35.8542 35.9375H50.125C54.6041 35.9375 55.7916 34.8542 55.8333 30.5417V25.125C55.8333 24.7108 55.4975 24.375 55.0833 24.375H30.8958ZM37.6458 32.2292H35.0417C34.4167 32.2292 33.9166 31.7292 33.9166 31.1042C33.9166 30.4792 34.4167 29.9792 35.0417 29.9792H37.6458C38.2708 29.9792 38.7708 30.4792 38.7708 31.1042C38.7708 31.7292 38.2708 32.2292 37.6458 32.2292ZM46.0833 32.2292H40.8958C40.2708 32.2292 39.7708 31.7292 39.7708 31.1042C39.7708 30.4792 40.2708 29.9792 40.8958 29.9792H46.0833C46.7083 29.9792 47.2083 30.4792 47.2083 31.1042C47.2292 31.7292 46.7083 32.2292 46.0833 32.2292Z" fill="#3F75F3"/>
<path d="M11.1546 85.0098H9.23358L3.31758 76.9008V85.0098H1.32858V73.6708H3.36858L9.16558 81.5248V73.6708H11.1546V85.0098ZM15.5529 85.0098H13.5639V73.6708H18.5619C19.7066 73.6708 20.6076 74.0108 21.2649 74.6908C21.9223 75.3708 22.2509 76.2151 22.2509 77.2238C22.2509 78.2211 21.9223 79.0598 21.2649 79.7398C20.6076 80.4198 19.7066 80.7598 18.5619 80.7598H15.5529V85.0098ZM18.2899 79.0088C18.8566 79.0088 19.3156 78.8444 19.6669 78.5158C20.0296 78.1871 20.2109 77.7564 20.2109 77.2238C20.2109 76.6798 20.0296 76.2434 19.6669 75.9148C19.3156 75.5861 18.8566 75.4218 18.2899 75.4218H15.5529V79.0088H18.2899ZM29.3803 85.2138C27.6803 85.2138 26.2636 84.6698 25.1303 83.5818C23.997 82.4824 23.4303 81.0714 23.4303 79.3488C23.4303 77.6261 23.997 76.2208 25.1303 75.1328C26.2636 74.0334 27.6803 73.4838 29.3803 73.4838C31.375 73.4838 32.888 74.3281 33.9193 76.0168L32.2363 76.9008C31.953 76.4134 31.5506 76.0168 31.0293 75.7108C30.5193 75.4048 29.9696 75.2518 29.3803 75.2518C28.2583 75.2518 27.3233 75.6371 26.5753 76.4078C25.8386 77.1784 25.4703 78.1588 25.4703 79.3488C25.4703 80.5274 25.8386 81.5078 26.5753 82.2898C27.3233 83.0604 28.2583 83.4458 29.3803 83.4458C29.9696 83.4458 30.5193 83.2928 31.0293 82.9868C31.5506 82.6694 31.953 82.2728 32.2363 81.7968L33.9363 82.6468C32.8483 84.3581 31.3296 85.2138 29.3803 85.2138ZM37.5002 85.0098H35.5112V73.6708H37.5002V85.0098ZM48.9854 85.0098H46.9964V75.4218H43.5624V73.6708H52.4194V75.4218H48.9854V85.0098ZM59.4266 85.0098H57.6416V84.1088C57.0069 84.8454 56.1173 85.2138 54.9726 85.2138C54.2359 85.2138 53.5786 84.9701 53.0006 84.4828C52.4226 83.9954 52.1336 83.3324 52.1336 82.4938C52.1336 81.6098 52.4169 80.9411 52.9836 80.4878C53.5503 80.0344 54.2133 79.8078 54.9726 79.8078C56.1399 79.8078 57.0296 80.1591 57.6416 80.8618V79.6378C57.6416 79.1731 57.4603 78.8048 57.0976 78.5328C56.7463 78.2494 56.2873 78.1078 55.7206 78.1078C54.7913 78.1078 53.9809 78.4591 53.2896 79.1618L52.5416 77.9208C53.4596 77.0368 54.6099 76.5948 55.9926 76.5948C57.0013 76.5948 57.8229 76.8328 58.4576 77.3088C59.1036 77.7734 59.4266 78.5214 59.4266 79.5528V85.0098ZM55.6866 83.9898C56.5593 83.9898 57.2109 83.7064 57.6416 83.1398V81.8818C57.2109 81.3151 56.5593 81.0318 55.6866 81.0318C55.1766 81.0318 54.7516 81.1678 54.4116 81.4398C54.0829 81.7118 53.9186 82.0688 53.9186 82.5108C53.9186 82.9528 54.0829 83.3098 54.4116 83.5818C54.7516 83.8538 55.1766 83.9898 55.6866 83.9898ZM65.0895 88.3418C63.6955 88.3418 62.5451 87.9338 61.6385 87.1178L62.4715 85.8258C63.0948 86.5284 63.9675 86.8798 65.0895 86.8798C65.7695 86.8798 66.3418 86.6984 66.8065 86.3358C67.2825 85.9731 67.5205 85.3894 67.5205 84.5848V83.6498C66.8291 84.5678 65.9508 85.0268 64.8855 85.0268C63.8088 85.0268 62.9305 84.6528 62.2505 83.9048C61.5818 83.1568 61.2475 82.1254 61.2475 80.8108C61.2475 79.4961 61.5818 78.4648 62.2505 77.7168C62.9191 76.9688 63.7975 76.5948 64.8855 76.5948C65.9735 76.5948 66.8518 77.0424 67.5205 77.9378V76.7988H69.3055V84.5848C69.3055 85.2874 69.1808 85.8938 68.9315 86.4038C68.6935 86.9251 68.3591 87.3161 67.9285 87.5768C67.5091 87.8488 67.0671 88.0414 66.6025 88.1548C66.1378 88.2794 65.6335 88.3418 65.0895 88.3418ZM65.4125 83.4288C65.8205 83.4288 66.2171 83.3268 66.6025 83.1228C66.9991 82.9074 67.3051 82.6468 67.5205 82.3408V79.2638C67.3051 78.9578 66.9991 78.7028 66.6025 78.4988C66.2171 78.2834 65.8205 78.1758 65.4125 78.1758C64.6985 78.1758 64.1318 78.4194 63.7125 78.9068C63.2931 79.3828 63.0835 80.0174 63.0835 80.8108C63.0835 81.6041 63.2931 82.2388 63.7125 82.7148C64.1318 83.1908 64.6985 83.4288 65.4125 83.4288ZM18.8515 105.214C16.9361 105.214 15.3948 104.613 14.2275 103.412L15.3495 101.865C16.3128 102.919 17.5085 103.446 18.9365 103.446C19.6958 103.446 20.2625 103.293 20.6365 102.987C21.0105 102.681 21.1975 102.312 21.1975 101.882C21.1975 101.519 21.0331 101.219 20.7045 100.981C20.3871 100.731 19.9791 100.55 19.4805 100.437C18.9931 100.323 18.4661 100.182 17.8995 100.012C17.3328 99.8418 16.8001 99.6548 16.3015 99.4508C15.8141 99.2468 15.4061 98.9181 15.0775 98.4648C14.7601 98.0114 14.6015 97.4618 14.6015 96.8158C14.6015 95.8524 14.9811 95.0591 15.7405 94.4358C16.4998 93.8011 17.4971 93.4838 18.7325 93.4838C20.4665 93.4838 21.8775 94.0164 22.9655 95.0818L21.8435 96.5608C20.9708 95.6881 19.8715 95.2518 18.5455 95.2518C17.9675 95.2518 17.5028 95.3821 17.1515 95.6428C16.8115 95.9034 16.6415 96.2434 16.6415 96.6628C16.6415 96.9461 16.7605 97.1898 16.9985 97.3938C17.2478 97.5864 17.5651 97.7451 17.9505 97.8698C18.3358 97.9831 18.7608 98.0964 19.2255 98.2098C19.7015 98.3118 20.1718 98.4478 20.6365 98.6178C21.1125 98.7878 21.5431 98.9918 21.9285 99.2298C22.3138 99.4564 22.6255 99.7851 22.8635 100.216C23.1128 100.635 23.2375 101.128 23.2375 101.695C23.2375 102.703 22.8635 103.542 22.1155 104.211C21.3788 104.879 20.2908 105.214 18.8515 105.214ZM27.2342 105.214C25.8289 105.214 25.1262 104.505 25.1262 103.089V98.3458H23.7662V96.7988H25.1262V94.5548H26.9112V96.7988H28.5772V98.3458H26.9112V102.647C26.9112 102.941 26.9792 103.179 27.1152 103.361C27.2512 103.542 27.4439 103.633 27.6932 103.633C28.0332 103.633 28.2939 103.531 28.4752 103.327L28.9002 104.687C28.5035 105.038 27.9482 105.214 27.2342 105.214ZM36.9979 105.01H35.2129V104.109C34.5782 104.845 33.6886 105.214 32.5439 105.214C31.8072 105.214 31.1499 104.97 30.5719 104.483C29.9939 103.995 29.7049 103.332 29.7049 102.494C29.7049 101.61 29.9882 100.941 30.5549 100.488C31.1216 100.034 31.7846 99.8078 32.5439 99.8078C33.7112 99.8078 34.6009 100.159 35.2129 100.862V99.6378C35.2129 99.1731 35.0316 98.8048 34.6689 98.5328C34.3176 98.2494 33.8586 98.1078 33.2919 98.1078C32.3626 98.1078 31.5522 98.4591 30.8609 99.1618L30.1129 97.9208C31.0309 97.0368 32.1812 96.5948 33.5639 96.5948C34.5726 96.5948 35.3942 96.8328 36.0289 97.3088C36.6749 97.7734 36.9979 98.5214 36.9979 99.5528V105.01ZM33.2579 103.99C34.1306 103.99 34.7822 103.706 35.2129 103.14V101.882C34.7822 101.315 34.1306 101.032 33.2579 101.032C32.7479 101.032 32.3229 101.168 31.9829 101.44C31.6542 101.712 31.4899 102.069 31.4899 102.511C31.4899 102.953 31.6542 103.31 31.9829 103.582C32.3229 103.854 32.7479 103.99 33.2579 103.99ZM41.7938 105.214C40.3884 105.214 39.6858 104.505 39.6858 103.089V98.3458H38.3258V96.7988H39.6858V94.5548H41.4708V96.7988H43.1368V98.3458H41.4708V102.647C41.4708 102.941 41.5388 103.179 41.6748 103.361C41.8108 103.542 42.0034 103.633 42.2528 103.633C42.5928 103.633 42.8534 103.531 43.0348 103.327L43.4598 104.687C43.0631 105.038 42.5078 105.214 41.7938 105.214ZM52.0675 105.01H50.2825V103.922C49.5118 104.783 48.5485 105.214 47.3925 105.214C46.5198 105.214 45.8568 104.993 45.4035 104.551C44.9615 104.097 44.7405 103.451 44.7405 102.613V96.7988H46.5255V101.95C46.5255 102.562 46.6671 102.998 46.9505 103.259C47.2338 103.508 47.6475 103.633 48.1915 103.633C48.6108 103.633 49.0075 103.531 49.3815 103.327C49.7555 103.111 50.0558 102.856 50.2825 102.562V96.7988H52.0675V105.01ZM57.208 105.214C55.746 105.214 54.573 104.783 53.689 103.922L54.505 102.647C54.811 102.964 55.219 103.236 55.729 103.463C56.2503 103.678 56.766 103.786 57.276 103.786C57.7973 103.786 58.1996 103.689 58.483 103.497C58.7663 103.293 58.908 103.026 58.908 102.698C58.908 102.403 58.738 102.176 58.398 102.018C58.058 101.848 57.6443 101.717 57.157 101.627C56.6696 101.525 56.1823 101.406 55.695 101.27C55.2076 101.122 54.794 100.867 54.454 100.505C54.114 100.142 53.944 99.6661 53.944 99.0768C53.944 98.3741 54.233 97.7848 54.811 97.3088C55.389 96.8328 56.1766 96.5948 57.174 96.5948C58.432 96.5948 59.4916 96.9744 60.353 97.7338L59.605 98.9918C59.0043 98.3344 58.194 98.0058 57.174 98.0058C56.7206 98.0058 56.3523 98.1021 56.069 98.2948C55.797 98.4874 55.661 98.7311 55.661 99.0258C55.661 99.2864 55.831 99.4904 56.171 99.6378C56.511 99.7851 56.9246 99.9098 57.412 100.012C57.8993 100.102 58.3866 100.221 58.874 100.369C59.3613 100.516 59.775 100.782 60.115 101.168C60.455 101.553 60.625 102.046 60.625 102.647C60.625 103.406 60.3246 104.024 59.724 104.5C59.1233 104.976 58.2846 105.214 57.208 105.214Z" fill="#202020"/>
</svg>
