<svg width="77" height="110" viewBox="0 0 77 110" fill="none" xmlns="http://www.w3.org/2000/svg">
<path opacity="0.4" d="M57.8334 16.1875V18.75H16.1667V15.7084C16.1667 10.9375 20.0417 7.08337 24.8125 7.08337H45.3334V12.4375C45.3334 15.0834 46.9167 16.6667 49.5625 16.6667H55.6875C56.5209 16.6667 57.2292 16.5209 57.8334 16.1875Z" fill="#3F75F3"/>
<path d="M16.1667 18.75V34.2917C16.1667 39.0625 20.0417 42.9167 24.8125 42.9167H49.1875C53.9584 42.9167 57.8334 39.0625 57.8334 34.2917V18.75H16.1667ZM28.6667 35.9375H24.5C23.6459 35.9375 22.9375 35.2292 22.9375 34.375C22.9375 33.5208 23.6459 32.8125 24.5 32.8125H28.6667C29.5209 32.8125 30.2292 33.5208 30.2292 34.375C30.2292 35.2292 29.5209 35.9375 28.6667 35.9375ZM42.2084 35.9375H33.875C33.0209 35.9375 32.3125 35.2292 32.3125 34.375C32.3125 33.5208 33.0209 32.8125 33.875 32.8125H42.2084C43.0625 32.8125 43.7709 33.5208 43.7709 34.375C43.7709 35.2292 43.0625 35.9375 42.2084 35.9375Z" fill="#3F75F3"/>
<path d="M55.6875 2.08337H49.5625C46.9166 2.08337 45.3333 3.66671 45.3333 6.31254V12.4375C45.3333 15.0834 46.9166 16.6667 49.5625 16.6667H55.6875C58.3333 16.6667 59.9166 15.0834 59.9166 12.4375V6.31254C59.9166 3.66671 58.3333 2.08337 55.6875 2.08337ZM57.6458 10.2709C57.4375 10.4792 57.125 10.625 56.7916 10.6459H53.8541L53.875 13.5417C53.8541 13.8959 53.7291 14.1875 53.4791 14.4375C53.2708 14.6459 52.9583 14.7917 52.625 14.7917C51.9375 14.7917 51.375 14.2292 51.375 13.5417V10.625L48.4583 10.6459C47.7708 10.6459 47.2083 10.0625 47.2083 9.37504C47.2083 8.68754 47.7708 8.12504 48.4583 8.12504L51.375 8.14587V5.22921C51.375 4.54171 51.9375 3.95837 52.625 3.95837C53.3125 3.95837 53.875 4.54171 53.875 5.22921L53.8541 8.12504H56.7916C57.4791 8.12504 58.0416 8.68754 58.0416 9.37504C58.0208 9.72921 57.875 10.0209 57.6458 10.2709Z" fill="#3F75F3"/>
<path d="M10.2211 84.0098H7.9091L5.4101 79.7768H3.4211V84.0098H1.4321V72.6708H6.4131C7.5351 72.6708 8.4361 72.9994 9.1161 73.6568C9.7961 74.3141 10.1361 75.1698 10.1361 76.2238C10.1361 77.1644 9.86976 77.9238 9.3371 78.5018C8.81576 79.0798 8.1811 79.4311 7.4331 79.5558L10.2211 84.0098ZM6.1581 78.0258C6.72476 78.0258 7.18943 77.8614 7.5521 77.5328C7.91476 77.1928 8.0961 76.7508 8.0961 76.2068C8.0961 75.6741 7.91476 75.2434 7.5521 74.9148C7.18943 74.5861 6.72476 74.4218 6.1581 74.4218H3.4211V78.0258H6.1581ZM15.3659 84.2138C14.1079 84.2138 13.0765 83.8171 12.2719 83.0238C11.4672 82.2304 11.0649 81.1878 11.0649 79.8958C11.0649 78.6944 11.4559 77.6801 12.2379 76.8528C13.0312 76.0141 14.0285 75.5948 15.2299 75.5948C16.4425 75.5948 17.4172 76.0141 18.1539 76.8528C18.8905 77.6801 19.2589 78.7454 19.2589 80.0488V80.4908H12.9349C13.0029 81.1368 13.2692 81.6751 13.7339 82.1058C14.1985 82.5364 14.7992 82.7518 15.5359 82.7518C16.4879 82.7518 17.2699 82.4458 17.8819 81.8338L18.6979 83.0068C17.8365 83.8114 16.7259 84.2138 15.3659 84.2138ZM17.5419 79.2158C17.5079 78.6491 17.2925 78.1504 16.8959 77.7198C16.5105 77.2778 15.9495 77.0568 15.2129 77.0568C14.5102 77.0568 13.9605 77.2778 13.5639 77.7198C13.1672 78.1504 12.9519 78.6491 12.9179 79.2158H17.5419ZM24.7607 84.2138C23.5254 84.2138 22.5111 83.8058 21.7177 82.9898C20.9244 82.1738 20.5277 81.1424 20.5277 79.8958C20.5277 78.6491 20.9244 77.6234 21.7177 76.8188C22.5111 76.0028 23.5254 75.5948 24.7607 75.5948C26.1321 75.5948 27.1804 76.0821 27.9057 77.0568L26.7327 78.1278C26.2794 77.4931 25.6504 77.1758 24.8457 77.1758C24.1091 77.1758 23.5084 77.4308 23.0437 77.9408C22.5904 78.4394 22.3637 79.0911 22.3637 79.8958C22.3637 80.7004 22.5904 81.3578 23.0437 81.8678C23.5084 82.3778 24.1091 82.6328 24.8457 82.6328C25.6391 82.6328 26.2681 82.3041 26.7327 81.6468L27.9057 82.7518C27.1691 83.7264 26.1207 84.2138 24.7607 84.2138ZM36.8315 84.0098H35.0465V78.8418C35.0465 78.2298 34.9049 77.7991 34.6215 77.5498C34.3495 77.3004 33.9415 77.1758 33.3975 77.1758C32.9669 77.1758 32.5645 77.2834 32.1905 77.4988C31.8165 77.7028 31.5162 77.9578 31.2895 78.2638V84.0098H29.5045V72.6708H31.2895V76.9038C31.5955 76.5411 32.0035 76.2351 32.5135 75.9858C33.0235 75.7251 33.5789 75.5948 34.1795 75.5948C35.9475 75.5948 36.8315 76.4618 36.8315 78.1958V84.0098ZM45.9667 84.0098H44.1817V83.1088C43.547 83.8454 42.6573 84.2138 41.5127 84.2138C40.776 84.2138 40.1187 83.9701 39.5407 83.4828C38.9627 82.9954 38.6737 82.3324 38.6737 81.4938C38.6737 80.6098 38.957 79.9411 39.5237 79.4878C40.0903 79.0344 40.7533 78.8078 41.5127 78.8078C42.68 78.8078 43.5697 79.1591 44.1817 79.8618V78.6378C44.1817 78.1731 44.0003 77.8048 43.6377 77.5328C43.2863 77.2494 42.8273 77.1078 42.2607 77.1078C41.3313 77.1078 40.521 77.4591 39.8297 78.1618L39.0817 76.9208C39.9997 76.0368 41.15 75.5948 42.5327 75.5948C43.5413 75.5948 44.363 75.8328 44.9977 76.3088C45.6437 76.7734 45.9667 77.5214 45.9667 78.5528V84.0098ZM42.2267 82.9898C43.0993 82.9898 43.751 82.7064 44.1817 82.1398V80.8818C43.751 80.3151 43.0993 80.0318 42.2267 80.0318C41.7167 80.0318 41.2917 80.1678 40.9517 80.4398C40.623 80.7118 40.4587 81.0688 40.4587 81.5108C40.4587 81.9528 40.623 82.3098 40.9517 82.5818C41.2917 82.8538 41.7167 82.9898 42.2267 82.9898ZM50.0655 84.0098H48.2805V75.7988H50.0655V76.9888C50.3942 76.5808 50.7908 76.2464 51.2555 75.9858C51.7315 75.7251 52.2245 75.5948 52.7345 75.5948V77.3628C52.5872 77.3288 52.4058 77.3118 52.1905 77.3118C51.8052 77.3118 51.3972 77.4251 50.9665 77.6518C50.5472 77.8671 50.2468 78.1221 50.0655 78.4168V84.0098ZM57.5231 87.3418C56.1291 87.3418 54.9787 86.9338 54.0721 86.1178L54.9051 84.8258C55.5284 85.5284 56.4011 85.8798 57.5231 85.8798C58.2031 85.8798 58.7754 85.6984 59.2401 85.3358C59.7161 84.9731 59.9541 84.3894 59.9541 83.5848V82.6498C59.2627 83.5678 58.3844 84.0268 57.3191 84.0268C56.2424 84.0268 55.3641 83.6528 54.6841 82.9048C54.0154 82.1568 53.6811 81.1254 53.6811 79.8108C53.6811 78.4961 54.0154 77.4648 54.6841 76.7168C55.3527 75.9688 56.2311 75.5948 57.3191 75.5948C58.4071 75.5948 59.2854 76.0424 59.9541 76.9378V75.7988H61.7391V83.5848C61.7391 84.2874 61.6144 84.8938 61.3651 85.4038C61.1271 85.9251 60.7927 86.3161 60.3621 86.5768C59.9427 86.8488 59.5007 87.0414 59.0361 87.1548C58.5714 87.2794 58.0671 87.3418 57.5231 87.3418ZM57.8461 82.4288C58.2541 82.4288 58.6507 82.3268 59.0361 82.1228C59.4327 81.9074 59.7387 81.6468 59.9541 81.3408V78.2638C59.7387 77.9578 59.4327 77.7028 59.0361 77.4988C58.6507 77.2834 58.2541 77.1758 57.8461 77.1758C57.1321 77.1758 56.5654 77.4194 56.1461 77.9068C55.7267 78.3828 55.5171 79.0174 55.5171 79.8108C55.5171 80.6041 55.7267 81.2388 56.1461 81.7148C56.5654 82.1908 57.1321 82.4288 57.8461 82.4288ZM67.86 84.2138C66.602 84.2138 65.5707 83.8171 64.766 83.0238C63.9613 82.2304 63.559 81.1878 63.559 79.8958C63.559 78.6944 63.95 77.6801 64.732 76.8528C65.5253 76.0141 66.5227 75.5948 67.724 75.5948C68.9367 75.5948 69.9113 76.0141 70.648 76.8528C71.3847 77.6801 71.753 78.7454 71.753 80.0488V80.4908H65.429C65.497 81.1368 65.7633 81.6751 66.228 82.1058C66.6927 82.5364 67.2933 82.7518 68.03 82.7518C68.982 82.7518 69.764 82.4458 70.376 81.8338L71.192 83.0068C70.3307 83.8114 69.22 84.2138 67.86 84.2138ZM70.036 79.2158C70.002 78.6491 69.7867 78.1504 69.39 77.7198C69.0047 77.2778 68.4437 77.0568 67.707 77.0568C67.0043 77.0568 66.4547 77.2778 66.058 77.7198C65.6613 78.1504 65.446 78.6491 65.412 79.2158H70.036ZM12.9587 104.01H10.9697V92.6708H18.7387V94.4218H12.9587V97.3458H18.6197V99.0968H12.9587V104.01ZM30.0851 104.01H27.8241L26.9911 101.817H21.7891L20.9561 104.01H18.6951L23.1491 92.6708H25.6311L30.0851 104.01ZM26.4301 100.066L24.3901 94.6598L22.3501 100.066H26.4301ZM35.0336 104.214C33.1183 104.214 31.5769 103.613 30.4096 102.412L31.5316 100.865C32.4949 101.919 33.6906 102.446 35.1186 102.446C35.8779 102.446 36.4446 102.293 36.8186 101.987C37.1926 101.681 37.3796 101.312 37.3796 100.882C37.3796 100.519 37.2153 100.219 36.8866 99.9808C36.5693 99.7314 36.1613 99.5501 35.6626 99.4368C35.1753 99.3234 34.6483 99.1818 34.0816 99.0118C33.5149 98.8418 32.9823 98.6548 32.4836 98.4508C31.9963 98.2468 31.5883 97.9181 31.2596 97.4648C30.9423 97.0114 30.7836 96.4618 30.7836 95.8158C30.7836 94.8524 31.1633 94.0591 31.9226 93.4358C32.6819 92.8011 33.6793 92.4838 34.9146 92.4838C36.6486 92.4838 38.0596 93.0164 39.1476 94.0818L38.0256 95.5608C37.1529 94.6881 36.0536 94.2518 34.7276 94.2518C34.1496 94.2518 33.6849 94.3821 33.3336 94.6428C32.9936 94.9034 32.8236 95.2434 32.8236 95.6628C32.8236 95.9461 32.9426 96.1898 33.1806 96.3938C33.4299 96.5864 33.7473 96.7451 34.1326 96.8698C34.5179 96.9831 34.9429 97.0964 35.4076 97.2098C35.8836 97.3118 36.3539 97.4478 36.8186 97.6178C37.2946 97.7878 37.7253 97.9918 38.1106 98.2298C38.4959 98.4564 38.8076 98.7851 39.0456 99.2158C39.2949 99.6351 39.4196 100.128 39.4196 100.695C39.4196 101.703 39.0456 102.542 38.2976 103.211C37.5609 103.879 36.4729 104.214 35.0336 104.214ZM45.7603 104.01H43.7713V94.4218H40.3373V92.6708H49.1943V94.4218H45.7603V104.01ZM56.2015 104.01H54.4165V103.109C53.7818 103.845 52.8922 104.214 51.7475 104.214C51.0108 104.214 50.3535 103.97 49.7755 103.483C49.1975 102.995 48.9085 102.332 48.9085 101.494C48.9085 100.61 49.1918 99.9411 49.7585 99.4878C50.3252 99.0344 50.9882 98.8078 51.7475 98.8078C52.9148 98.8078 53.8045 99.1591 54.4165 99.8618V98.6378C54.4165 98.1731 54.2352 97.8048 53.8725 97.5328C53.5212 97.2494 53.0622 97.1078 52.4955 97.1078C51.5662 97.1078 50.7558 97.4591 50.0645 98.1618L49.3165 96.9208C50.2345 96.0368 51.3848 95.5948 52.7675 95.5948C53.7762 95.5948 54.5978 95.8328 55.2325 96.3088C55.8785 96.7734 56.2015 97.5214 56.2015 98.5528V104.01ZM52.4615 102.99C53.3342 102.99 53.9858 102.706 54.4165 102.14V100.882C53.9858 100.315 53.3342 100.032 52.4615 100.032C51.9515 100.032 51.5265 100.168 51.1865 100.44C50.8578 100.712 50.6935 101.069 50.6935 101.511C50.6935 101.953 50.8578 102.31 51.1865 102.582C51.5265 102.854 51.9515 102.99 52.4615 102.99ZM61.8644 107.342C60.4704 107.342 59.32 106.934 58.4134 106.118L59.2464 104.826C59.8697 105.528 60.7424 105.88 61.8644 105.88C62.5444 105.88 63.1167 105.698 63.5814 105.336C64.0574 104.973 64.2954 104.389 64.2954 103.585V102.65C63.604 103.568 62.7257 104.027 61.6604 104.027C60.5837 104.027 59.7054 103.653 59.0254 102.905C58.3567 102.157 58.0224 101.125 58.0224 99.8108C58.0224 98.4961 58.3567 97.4648 59.0254 96.7168C59.694 95.9688 60.5724 95.5948 61.6604 95.5948C62.7484 95.5948 63.6267 96.0424 64.2954 96.9378V95.7988H66.0804V103.585C66.0804 104.287 65.9557 104.894 65.7064 105.404C65.4684 105.925 65.134 106.316 64.7034 106.577C64.284 106.849 63.842 107.041 63.3774 107.155C62.9127 107.279 62.4084 107.342 61.8644 107.342ZM62.1874 102.429C62.5954 102.429 62.992 102.327 63.3774 102.123C63.774 101.907 64.08 101.647 64.2954 101.341V98.2638C64.08 97.9578 63.774 97.7028 63.3774 97.4988C62.992 97.2834 62.5954 97.1758 62.1874 97.1758C61.4734 97.1758 60.9067 97.4194 60.4874 97.9068C60.068 98.3828 59.8584 99.0174 59.8584 99.8108C59.8584 100.604 60.068 101.239 60.4874 101.715C60.9067 102.191 61.4734 102.429 62.1874 102.429Z" fill="#202020"/>
</svg>
