<svg width="414" height="148" viewBox="0 0 414 148" fill="none" xmlns="http://www.w3.org/2000/svg">
<g filter="url(#filter0_dd_611_2237)">
<rect x="16" y="18" width="180" height="112" rx="10" fill="url(#paint0_linear_611_2237)"/>
</g>
<mask id="mask0_611_2237" style="mask-type:alpha" maskUnits="userSpaceOnUse" x="16" y="18" width="180" height="112">
<rect x="16" y="18" width="180" height="112" rx="10" fill="url(#paint1_linear_611_2237)"/>
</mask>
<g mask="url(#mask0_611_2237)">
<circle cx="169.5" cy="37.5" r="56.5" fill="white" fill-opacity="0.05"/>
</g>
<path d="M40.5803 109H43.0103L40.0763 104.284C41.5163 104.05 42.9203 102.898 42.9203 100.756C42.9203 98.542 41.3723 96.994 38.9963 96.994H33.7223V109H35.8283V104.518H37.9163L40.5803 109ZM40.7603 100.756C40.7603 101.908 39.8963 102.664 38.7083 102.664H35.8283V98.848H38.7083C39.8963 98.848 40.7603 99.604 40.7603 100.756ZM43.8861 104.644C43.8861 107.398 45.8301 109.216 48.4401 109.216C49.8261 109.216 51.1041 108.784 51.9681 107.956L51.1041 106.714C50.4921 107.326 49.4841 107.668 48.6381 107.668C47.0001 107.668 46.0101 106.588 45.8661 105.274H52.5801V104.824C52.5801 102.088 50.9061 100.09 48.2961 100.09C45.7221 100.09 43.8861 102.124 43.8861 104.644ZM48.2961 101.638C50.0061 101.638 50.7081 102.916 50.7441 103.942H45.8481C45.9381 102.88 46.6761 101.638 48.2961 101.638ZM54.3377 111.232C55.3997 112.204 56.4977 112.528 57.9737 112.528C60.1157 112.528 62.4377 111.682 62.4377 108.55V100.306H60.5477V101.512C59.8457 100.594 58.8557 100.09 57.7577 100.09C55.5257 100.09 53.9057 101.746 53.9057 104.554C53.9057 107.416 55.5437 109.018 57.7577 109.018C58.8917 109.018 59.8817 108.442 60.5477 107.578V108.622C60.5477 110.404 59.2157 110.98 57.9737 110.98C56.8217 110.98 55.9217 110.674 55.2197 109.864L54.3377 111.232ZM60.5477 106.174C60.1337 106.822 59.1977 107.344 58.3157 107.344C56.8217 107.344 55.8677 106.228 55.8677 104.554C55.8677 102.88 56.8217 101.764 58.3157 101.764C59.1977 101.764 60.1337 102.286 60.5477 102.934V106.174ZM65.8231 98.866C66.4711 98.866 66.9931 98.344 66.9931 97.696C66.9931 97.048 66.4711 96.526 65.8231 96.526C65.1931 96.526 64.6531 97.048 64.6531 97.696C64.6531 98.344 65.1931 98.866 65.8231 98.866ZM64.8871 109H66.7771V100.306H64.8871V109ZM68.4729 107.866C69.3729 108.748 70.7229 109.216 72.1989 109.216C74.5389 109.216 75.8169 108.046 75.8169 106.516C75.8169 104.464 73.9629 104.032 72.4509 103.708C71.4249 103.474 70.5609 103.24 70.5609 102.574C70.5609 101.962 71.1909 101.602 72.1809 101.602C73.2609 101.602 74.2329 102.052 74.7549 102.646L75.5469 101.314C74.7549 100.612 73.6389 100.09 72.1629 100.09C69.9669 100.09 68.7429 101.314 68.7429 102.736C68.7429 104.68 70.5249 105.076 72.0189 105.4C73.0809 105.634 73.9989 105.904 73.9989 106.66C73.9989 107.308 73.4229 107.722 72.2889 107.722C71.1549 107.722 69.9489 107.128 69.3369 106.498L68.4729 107.866ZM80.3291 109.216C81.2111 109.216 81.7691 108.982 82.1111 108.658L81.6611 107.236C81.5171 107.398 81.1751 107.542 80.8151 107.542C80.2751 107.542 79.9871 107.11 79.9871 106.516V101.962H81.7511V100.306H79.9871V97.93H78.0971V100.306H76.6571V101.962H78.0971V106.984C78.0971 108.424 78.8711 109.216 80.3291 109.216ZM82.9272 104.644C82.9272 107.398 84.8712 109.216 87.4812 109.216C88.8672 109.216 90.1452 108.784 91.0092 107.956L90.1452 106.714C89.5332 107.326 88.5252 107.668 87.6792 107.668C86.0412 107.668 85.0512 106.588 84.9072 105.274H91.6212V104.824C91.6212 102.088 89.9472 100.09 87.3372 100.09C84.7632 100.09 82.9272 102.124 82.9272 104.644ZM87.3372 101.638C89.0472 101.638 89.7492 102.916 89.7852 103.942H84.8892C84.9792 102.88 85.7172 101.638 87.3372 101.638ZM93.4867 109H95.3767V103.078C95.7547 102.466 96.8167 101.926 97.6087 101.926C97.8427 101.926 98.0407 101.944 98.2027 101.98V100.108C97.0687 100.108 96.0247 100.756 95.3767 101.584V100.306H93.4867V109ZM99.1869 104.644C99.1869 107.398 101.131 109.216 103.741 109.216C105.127 109.216 106.405 108.784 107.269 107.956L106.405 106.714C105.793 107.326 104.785 107.668 103.939 107.668C102.301 107.668 101.311 106.588 101.167 105.274H107.881V104.824C107.881 102.088 106.207 100.09 103.597 100.09C101.023 100.09 99.1869 102.124 99.1869 104.644ZM103.597 101.638C105.307 101.638 106.009 102.916 106.045 103.942H101.149C101.239 102.88 101.977 101.638 103.597 101.638ZM115.866 109H117.756V96.994H115.866V101.512C115.164 100.594 114.156 100.09 113.076 100.09C110.826 100.09 109.206 101.854 109.206 104.662C109.206 107.524 110.844 109.216 113.076 109.216C114.192 109.216 115.2 108.676 115.866 107.812V109ZM115.866 106.39C115.434 107.038 114.516 107.542 113.616 107.542C112.122 107.542 111.168 106.336 111.168 104.662C111.168 102.97 112.122 101.764 113.616 101.764C114.516 101.764 115.434 102.286 115.866 102.934V106.39ZM127.744 109H129.85V98.848H133.486V96.994H124.108V98.848H127.744V109ZM138.998 109H140.888V103.24C140.888 100.9 139.196 100.09 137.27 100.09C135.884 100.09 134.624 100.54 133.616 101.494L134.39 102.808C135.146 102.07 135.992 101.71 136.964 101.71C138.17 101.71 138.998 102.322 138.998 103.33V104.626C138.368 103.888 137.36 103.51 136.19 103.51C134.768 103.51 133.166 104.338 133.166 106.336C133.166 108.262 134.768 109.216 136.19 109.216C137.342 109.216 138.35 108.802 138.998 108.064V109ZM138.998 107.02C138.566 107.614 137.756 107.92 136.928 107.92C135.866 107.92 135.074 107.308 135.074 106.372C135.074 105.418 135.866 104.806 136.928 104.806C137.756 104.806 138.566 105.112 138.998 105.706V107.02ZM143.23 111.232C144.292 112.204 145.39 112.528 146.866 112.528C149.008 112.528 151.33 111.682 151.33 108.55V100.306H149.44V101.512C148.738 100.594 147.748 100.09 146.65 100.09C144.418 100.09 142.798 101.746 142.798 104.554C142.798 107.416 144.436 109.018 146.65 109.018C147.784 109.018 148.774 108.442 149.44 107.578V108.622C149.44 110.404 148.108 110.98 146.866 110.98C145.714 110.98 144.814 110.674 144.112 109.864L143.23 111.232ZM149.44 106.174C149.026 106.822 148.09 107.344 147.208 107.344C145.714 107.344 144.76 106.228 144.76 104.554C144.76 102.88 145.714 101.764 147.208 101.764C148.09 101.764 149.026 102.286 149.44 102.934V106.174Z" fill="white"/>
<path d="M46.9849 72.576C41.7049 72.576 37.5929 70.976 34.6489 67.776L38.4409 63.024C40.6809 65.36 43.5129 66.528 46.9369 66.528C48.7609 66.528 50.2009 66.08 51.2569 65.184C52.3449 64.256 52.8889 63.12 52.8889 61.776C52.8889 60.336 52.3769 59.184 51.3529 58.32C50.3289 57.456 48.9209 57.024 47.1289 57.024C44.4729 57.024 42.2329 57.888 40.4089 59.616L35.6569 58.32V39.984H57.6409V45.984H42.4729V53.808C44.2649 52.016 46.6169 51.12 49.5289 51.12C52.3769 51.12 54.7929 52.064 56.7769 53.952C58.7929 55.84 59.8009 58.352 59.8009 61.488C59.8009 64.848 58.6329 67.536 56.2969 69.552C53.9609 71.568 50.8569 72.576 46.9849 72.576ZM76.188 72.576C70.908 72.576 66.796 70.976 63.852 67.776L67.644 63.024C69.884 65.36 72.716 66.528 76.14 66.528C77.964 66.528 79.404 66.08 80.46 65.184C81.548 64.256 82.092 63.12 82.092 61.776C82.092 60.336 81.58 59.184 80.556 58.32C79.532 57.456 78.124 57.024 76.332 57.024C73.676 57.024 71.436 57.888 69.612 59.616L64.86 58.32V39.984H86.844V45.984H71.676V53.808C73.468 52.016 75.82 51.12 78.732 51.12C81.58 51.12 83.996 52.064 85.98 53.952C87.996 55.84 89.004 58.352 89.004 61.488C89.004 64.848 87.836 67.536 85.5 69.552C83.164 71.568 80.06 72.576 76.188 72.576Z" fill="white"/>
<g opacity="0.5">
<path opacity="0.4" d="M180.833 42.75V55.25C180.833 62.5417 176.667 65.6667 170.417 65.6667H152.604C153.333 64.4375 153.75 63.0209 153.75 61.5C153.75 56.8959 150.021 53.1667 145.417 53.1667C142.917 53.1667 140.688 54.2708 139.167 56V42.75C139.167 35.4584 143.333 32.3334 149.583 32.3334H170.417C176.667 32.3334 180.833 35.4584 180.833 42.75Z" fill="white"/>
<path d="M160 54.2083C162.877 54.2083 165.208 51.8764 165.208 49C165.208 46.1235 162.877 43.7916 160 43.7916C157.124 43.7916 154.792 46.1235 154.792 49C154.792 51.8764 157.124 54.2083 160 54.2083Z" fill="white"/>
<path d="M173.542 54.7292C172.688 54.7292 171.979 54.0209 171.979 53.1667V44.8334C171.979 43.9792 172.688 43.2709 173.542 43.2709C174.396 43.2709 175.104 43.9792 175.104 44.8334V53.1667C175.104 54.0209 174.396 54.7292 173.542 54.7292Z" fill="white"/>
<path d="M145.417 53.1666C140.812 53.1666 137.083 56.8958 137.083 61.5C137.083 63.0625 137.521 64.5416 138.292 65.7916C139.729 68.2083 142.375 69.8333 145.417 69.8333C148.458 69.8333 151.104 68.2083 152.542 65.7916C153.313 64.5416 153.75 63.0625 153.75 61.5C153.75 56.8958 150.021 53.1666 145.417 53.1666ZM149.521 60.8124L145.083 64.9167C144.792 65.1875 144.396 65.3333 144.021 65.3333C143.625 65.3333 143.229 65.1874 142.917 64.8749L140.854 62.8125C140.25 62.2083 140.25 61.2083 140.854 60.6041C141.458 60 142.458 60 143.062 60.6041L144.062 61.6041L147.396 58.5208C148.021 57.9375 149.021 57.9791 149.604 58.6041C150.187 59.2291 150.146 60.2291 149.521 60.8124Z" fill="white"/>
</g>
<g filter="url(#filter1_dd_611_2237)">
<rect x="218" y="18" width="180" height="112" rx="10" fill="url(#paint2_linear_611_2237)"/>
</g>
<mask id="mask1_611_2237" style="mask-type:alpha" maskUnits="userSpaceOnUse" x="218" y="18" width="180" height="112">
<rect x="218" y="18" width="180" height="112" rx="10" fill="url(#paint3_linear_611_2237)"/>
</mask>
<g mask="url(#mask1_611_2237)">
<circle cx="371.5" cy="37.5" r="56.5" fill="white" fill-opacity="0.05"/>
</g>
<path d="M240.344 110H238.238V99.848H234.602V97.994H243.98V99.848H240.344V110ZM251.399 110H249.509V109.046C248.837 109.826 247.895 110.216 246.683 110.216C245.903 110.216 245.207 109.958 244.595 109.442C243.983 108.926 243.677 108.224 243.677 107.336C243.677 106.4 243.977 105.692 244.577 105.212C245.177 104.732 245.879 104.492 246.683 104.492C247.919 104.492 248.861 104.864 249.509 105.608V104.312C249.509 103.82 249.317 103.43 248.933 103.142C248.561 102.842 248.075 102.692 247.475 102.692C246.491 102.692 245.633 103.064 244.901 103.808L244.109 102.494C245.081 101.558 246.299 101.09 247.763 101.09C248.831 101.09 249.701 101.342 250.373 101.846C251.057 102.338 251.399 103.13 251.399 104.222V110ZM247.439 108.92C248.363 108.92 249.053 108.62 249.509 108.02V106.688C249.053 106.088 248.363 105.788 247.439 105.788C246.899 105.788 246.449 105.932 246.089 106.22C245.741 106.508 245.567 106.886 245.567 107.354C245.567 107.822 245.741 108.2 246.089 108.488C246.449 108.776 246.899 108.92 247.439 108.92ZM257.395 113.528C255.919 113.528 254.701 113.096 253.741 112.232L254.623 110.864C255.283 111.608 256.207 111.98 257.395 111.98C258.115 111.98 258.721 111.788 259.213 111.404C259.717 111.02 259.969 110.402 259.969 109.55V108.56C259.237 109.532 258.307 110.018 257.179 110.018C256.039 110.018 255.109 109.622 254.389 108.83C253.681 108.038 253.327 106.946 253.327 105.554C253.327 104.162 253.681 103.07 254.389 102.278C255.097 101.486 256.027 101.09 257.179 101.09C258.331 101.09 259.261 101.564 259.969 102.512V101.306H261.859V109.55C261.859 110.294 261.727 110.936 261.463 111.476C261.211 112.028 260.857 112.442 260.401 112.718C259.957 113.006 259.489 113.21 258.997 113.33C258.505 113.462 257.971 113.528 257.395 113.528ZM257.737 108.326C258.169 108.326 258.589 108.218 258.997 108.002C259.417 107.774 259.741 107.498 259.969 107.174V103.916C259.741 103.592 259.417 103.322 258.997 103.106C258.589 102.878 258.169 102.764 257.737 102.764C256.981 102.764 256.381 103.022 255.937 103.538C255.493 104.042 255.271 104.714 255.271 105.554C255.271 106.394 255.493 107.066 255.937 107.57C256.381 108.074 256.981 108.326 257.737 108.326ZM270.731 99.902C270.503 100.13 270.227 100.244 269.903 100.244C269.579 100.244 269.303 100.13 269.075 99.902C268.847 99.674 268.733 99.398 268.733 99.074C268.733 98.75 268.847 98.474 269.075 98.246C269.303 98.018 269.579 97.904 269.903 97.904C270.227 97.904 270.503 98.018 270.731 98.246C270.959 98.474 271.073 98.75 271.073 99.074C271.073 99.398 270.959 99.674 270.731 99.902ZM270.839 110H268.949V101.306H270.839V110ZM281.066 110H279.176V104.564C279.176 103.916 279.02 103.454 278.708 103.178C278.408 102.902 277.976 102.764 277.412 102.764C276.968 102.764 276.548 102.878 276.152 103.106C275.756 103.322 275.432 103.592 275.18 103.916V110H273.29V101.306H275.18V102.476C275.504 102.092 275.936 101.768 276.476 101.504C277.028 101.228 277.622 101.09 278.258 101.09C279.182 101.09 279.878 101.33 280.346 101.81C280.826 102.29 281.066 102.98 281.066 103.88V110ZM292.338 110.216C290.31 110.216 288.678 109.58 287.442 108.308L288.63 106.67C289.65 107.786 290.916 108.344 292.428 108.344C293.232 108.344 293.832 108.182 294.228 107.858C294.624 107.534 294.822 107.144 294.822 106.688C294.822 106.304 294.648 105.986 294.3 105.734C293.964 105.47 293.532 105.278 293.004 105.158C292.488 105.038 291.93 104.888 291.33 104.708C290.73 104.528 290.166 104.33 289.638 104.114C289.122 103.898 288.69 103.55 288.342 103.07C288.006 102.59 287.838 102.008 287.838 101.324C287.838 100.304 288.24 99.464 289.044 98.804C289.848 98.132 290.904 97.796 292.212 97.796C294.048 97.796 295.542 98.36 296.694 99.488L295.506 101.054C294.582 100.13 293.418 99.668 292.014 99.668C291.402 99.668 290.91 99.806 290.538 100.082C290.178 100.358 289.998 100.718 289.998 101.162C289.998 101.462 290.124 101.72 290.376 101.936C290.64 102.14 290.976 102.308 291.384 102.44C291.792 102.56 292.242 102.68 292.734 102.8C293.238 102.908 293.736 103.052 294.228 103.232C294.732 103.412 295.188 103.628 295.596 103.88C296.004 104.12 296.334 104.468 296.586 104.924C296.85 105.368 296.982 105.89 296.982 106.49C296.982 107.558 296.586 108.446 295.794 109.154C295.014 109.862 293.862 110.216 292.338 110.216ZM301.213 110.216C299.725 110.216 298.981 109.466 298.981 107.966V102.944H297.541V101.306H298.981V98.93H300.871V101.306H302.635V102.944H300.871V107.498C300.871 107.81 300.943 108.062 301.087 108.254C301.231 108.446 301.435 108.542 301.699 108.542C302.059 108.542 302.335 108.434 302.527 108.218L302.977 109.658C302.557 110.03 301.969 110.216 301.213 110.216ZM311.515 108.902C310.699 109.778 309.619 110.216 308.275 110.216C306.931 110.216 305.851 109.778 305.035 108.902C304.219 108.014 303.811 106.928 303.811 105.644C303.811 104.348 304.219 103.268 305.035 102.404C305.851 101.528 306.931 101.09 308.275 101.09C309.619 101.09 310.699 101.528 311.515 102.404C312.331 103.268 312.739 104.348 312.739 105.644C312.739 106.928 312.331 108.014 311.515 108.902ZM308.275 108.542C309.055 108.542 309.667 108.266 310.111 107.714C310.555 107.15 310.777 106.46 310.777 105.644C310.777 104.84 310.555 104.162 310.111 103.61C309.667 103.046 309.055 102.764 308.275 102.764C307.507 102.764 306.895 103.046 306.439 103.61C305.995 104.162 305.773 104.84 305.773 105.644C305.773 106.46 305.995 107.15 306.439 107.714C306.895 108.266 307.507 108.542 308.275 108.542ZM318.629 110.216C317.321 110.216 316.247 109.784 315.407 108.92C314.567 108.056 314.147 106.964 314.147 105.644C314.147 104.324 314.567 103.238 315.407 102.386C316.247 101.522 317.321 101.09 318.629 101.09C320.081 101.09 321.191 101.606 321.959 102.638L320.717 103.772C320.237 103.1 319.571 102.764 318.719 102.764C317.939 102.764 317.303 103.034 316.811 103.574C316.331 104.102 316.091 104.792 316.091 105.644C316.091 106.496 316.331 107.192 316.811 107.732C317.303 108.272 317.939 108.542 318.719 108.542C319.559 108.542 320.225 108.194 320.717 107.498L321.959 108.668C321.179 109.7 320.069 110.216 318.629 110.216ZM331.77 110H329.394L326.748 106.4L325.524 107.66V110H323.634V97.994H325.524V105.5L329.358 101.306H331.698L328.098 105.248L331.77 110Z" fill="white"/>
<path d="M250.802 78V45.984H244.85L234.77 56.112L238.658 60.192L243.986 54.768V78H250.802ZM280.329 78V72H267.273C275.577 65.952 280.089 61.2 280.089 55.728C280.089 49.344 274.665 45.504 267.849 45.504C263.385 45.504 258.633 47.136 255.513 50.736L259.401 55.248C261.561 52.992 264.345 51.552 267.993 51.552C270.633 51.552 273.177 52.944 273.177 55.728C273.177 59.664 269.337 62.976 256.233 72.672V78H280.329Z" fill="white"/>
<g opacity="0.5">
<path opacity="0.8" d="M363.875 29.25L363.812 29.3958L357.771 43.4166H351.833C350.417 43.4166 349.083 43.6875 347.833 44.2291L351.479 35.5208L351.562 35.3333L351.687 35C351.75 34.8541 351.792 34.7291 351.854 34.625C354.583 28.3125 357.667 26.875 363.875 29.25Z" fill="white"/>
<path d="M375.104 43.8333C374.167 43.5625 373.187 43.4167 372.167 43.4167H357.771L363.812 29.3958L363.875 29.25C364.167 29.3542 364.479 29.5 364.792 29.6042L369.396 31.5417C371.958 32.6042 373.75 33.7083 374.854 35.0417C375.042 35.2917 375.208 35.5208 375.375 35.7917C375.562 36.0833 375.708 36.375 375.792 36.6875C375.875 36.875 375.937 37.0417 375.979 37.2292C376.521 39 376.187 41.1458 375.104 43.8333Z" fill="white"/>
<path opacity="0.4" d="M382.333 53.5833V57.6458C382.333 58.0625 382.313 58.4791 382.292 58.875C381.896 66.1666 377.833 69.8333 370.125 69.8333H353.875C353.354 69.8333 352.875 69.7916 352.396 69.7291C345.771 69.2916 342.229 65.75 341.771 59.125C341.708 58.625 341.667 58.1458 341.667 57.6458V53.5833C341.667 49.3958 344.208 45.7916 347.833 44.2291C349.083 43.6875 350.417 43.4166 351.833 43.4166H372.167C373.188 43.4166 374.167 43.5625 375.104 43.8333C379.271 45.1041 382.333 48.9791 382.333 53.5833Z" fill="white"/>
<path opacity="0.6" d="M351.479 35.5209L347.833 44.2292C344.208 45.7917 341.667 49.3959 341.667 53.5834V47.4792C341.667 41.5625 345.875 36.625 351.479 35.5209Z" fill="white"/>
<path opacity="0.6" d="M382.333 47.4792V53.5833C382.333 48.9792 379.271 45.1042 375.104 43.8333C376.188 41.1458 376.521 39 375.979 37.2292C375.938 37.0417 375.875 36.875 375.792 36.6875C379.688 38.7083 382.333 42.8125 382.333 47.4792Z" fill="white"/>
</g>
<defs>
<filter id="filter0_dd_611_2237" x="-2" y="0" width="216" height="148" filterUnits="userSpaceOnUse" color-interpolation-filters="sRGB">
<feFlood flood-opacity="0" result="BackgroundImageFix"/>
<feColorMatrix in="SourceAlpha" type="matrix" values="0 0 0 0 0 0 0 0 0 0 0 0 0 0 0 0 0 0 127 0" result="hardAlpha"/>
<feOffset dx="-6" dy="-6"/>
<feGaussianBlur stdDeviation="6"/>
<feComposite in2="hardAlpha" operator="out"/>
<feColorMatrix type="matrix" values="0 0 0 0 1 0 0 0 0 1 0 0 0 0 1 0 0 0 1 0"/>
<feBlend mode="normal" in2="BackgroundImageFix" result="effect1_dropShadow_611_2237"/>
<feColorMatrix in="SourceAlpha" type="matrix" values="0 0 0 0 0 0 0 0 0 0 0 0 0 0 0 0 0 0 127 0" result="hardAlpha"/>
<feOffset dx="6" dy="6"/>
<feGaussianBlur stdDeviation="6"/>
<feComposite in2="hardAlpha" operator="out"/>
<feColorMatrix type="matrix" values="0 0 0 0 0.831373 0 0 0 0 0.878431 0 0 0 0 0.921569 0 0 0 0.8 0"/>
<feBlend mode="normal" in2="effect1_dropShadow_611_2237" result="effect2_dropShadow_611_2237"/>
<feBlend mode="normal" in="SourceGraphic" in2="effect2_dropShadow_611_2237" result="shape"/>
</filter>
<filter id="filter1_dd_611_2237" x="200" y="0" width="216" height="148" filterUnits="userSpaceOnUse" color-interpolation-filters="sRGB">
<feFlood flood-opacity="0" result="BackgroundImageFix"/>
<feColorMatrix in="SourceAlpha" type="matrix" values="0 0 0 0 0 0 0 0 0 0 0 0 0 0 0 0 0 0 127 0" result="hardAlpha"/>
<feOffset dx="-6" dy="-6"/>
<feGaussianBlur stdDeviation="6"/>
<feComposite in2="hardAlpha" operator="out"/>
<feColorMatrix type="matrix" values="0 0 0 0 1 0 0 0 0 1 0 0 0 0 1 0 0 0 1 0"/>
<feBlend mode="normal" in2="BackgroundImageFix" result="effect1_dropShadow_611_2237"/>
<feColorMatrix in="SourceAlpha" type="matrix" values="0 0 0 0 0 0 0 0 0 0 0 0 0 0 0 0 0 0 127 0" result="hardAlpha"/>
<feOffset dx="6" dy="6"/>
<feGaussianBlur stdDeviation="6"/>
<feComposite in2="hardAlpha" operator="out"/>
<feColorMatrix type="matrix" values="0 0 0 0 0.831373 0 0 0 0 0.878431 0 0 0 0 0.921569 0 0 0 0.8 0"/>
<feBlend mode="normal" in2="effect1_dropShadow_611_2237" result="effect2_dropShadow_611_2237"/>
<feBlend mode="normal" in="SourceGraphic" in2="effect2_dropShadow_611_2237" result="shape"/>
</filter>
<linearGradient id="paint0_linear_611_2237" x1="23" y1="74" x2="196" y2="74" gradientUnits="userSpaceOnUse">
<stop stop-color="#3BA1F6"/>
<stop offset="1" stop-color="#2669F1"/>
</linearGradient>
<linearGradient id="paint1_linear_611_2237" x1="23" y1="74" x2="196" y2="74" gradientUnits="userSpaceOnUse">
<stop stop-color="#3BA1F6"/>
<stop offset="1" stop-color="#2669F1"/>
</linearGradient>
<linearGradient id="paint2_linear_611_2237" x1="225" y1="74" x2="398" y2="74" gradientUnits="userSpaceOnUse">
<stop stop-color="#3BA1F6"/>
<stop offset="1" stop-color="#2669F1"/>
</linearGradient>
<linearGradient id="paint3_linear_611_2237" x1="225" y1="74" x2="398" y2="74" gradientUnits="userSpaceOnUse">
<stop stop-color="#3BA1F6"/>
<stop offset="1" stop-color="#2669F1"/>
</linearGradient>
</defs>
</svg>
