<svg width="31" height="31" viewBox="0 0 31 31" fill="none" xmlns="http://www.w3.org/2000/svg">
<path d="M26.1562 5.8125H4.84375C4.30872 5.8125 3.875 6.24622 3.875 6.78125V24.2188C3.875 24.7538 4.30872 25.1875 4.84375 25.1875H26.1562C26.6913 25.1875 27.125 24.7538 27.125 24.2188V6.78125C27.125 6.24622 26.6913 5.8125 26.1562 5.8125Z" stroke="white" stroke-width="1.5" stroke-linecap="round" stroke-linejoin="round"/>
<path d="M3.875 9.6875H27.125" stroke="white" stroke-width="1.5" stroke-linecap="round" stroke-linejoin="round"/>
<path d="M20.3438 13.5625C20.3438 14.8471 19.8334 16.0792 18.925 16.9875C18.0167 17.8959 16.7846 18.4063 15.5 18.4062C14.2154 18.4063 12.9833 17.8959 12.075 16.9875C11.1666 16.0792 10.6563 14.8471 10.6562 13.5625" stroke="white" stroke-width="1.5" stroke-linecap="round" stroke-linejoin="round"/>
</svg>
