<svg width="25" height="18" viewBox="0 0 25 18" fill="none" xmlns="http://www.w3.org/2000/svg">
<path d="M12.5 0.0661378C15.873 0.0661378 19.1799 0.0661378 22.5529 0.0661378C24.1402 0.0661378 25 0.925927 25 2.51323C25 6.74603 25 10.9788 25 15.2116C25 16.7328 24.0741 17.6587 22.5529 17.6587C15.873 17.5926 9.12698 17.5926 2.44709 17.5926C0.925926 17.5926 0 16.7328 0 15.2116C0 10.9788 0 6.67989 0 2.44709C0 0.925926 0.859788 0 2.44709 0C5.75397 0.0661376 9.12698 0.0661378 12.5 0.0661378ZM2.57937 1.52116C2.71164 1.65344 2.77778 1.78571 2.84392 1.85185C5.82011 4.82804 8.73016 7.7381 11.7064 10.7143C12.3016 11.3095 12.6984 11.3095 13.2937 10.7143C16.2698 7.7381 19.1799 4.82804 22.1561 1.85185C22.2222 1.78571 22.2884 1.65344 22.4206 1.52116C15.7407 1.52116 9.19312 1.52116 2.57937 1.52116ZM2.6455 16.1376C9.19312 16.1376 15.8069 16.1376 22.3545 16.1376C20.2381 14.0873 18.1878 12.037 16.1376 9.98677C15.5423 10.582 14.9471 11.2434 14.2857 11.8386C14.0873 12.037 13.8228 12.3016 13.4921 12.4339C12.6323 12.8968 11.5741 12.6984 10.8466 11.9709C10.1852 11.3095 9.45767 10.6481 8.86243 9.98677C6.81217 12.037 4.69577 14.0873 2.6455 16.1376ZM1.52116 2.6455C1.52116 6.74603 1.52116 10.9127 1.52116 14.881C3.57143 12.8968 5.62169 10.8466 7.7381 8.7963C5.62169 6.74603 3.57143 4.69577 1.52116 2.6455ZM23.4788 15.0132C23.4788 10.9127 23.4788 6.74603 23.4788 2.77778C21.4286 4.76191 19.3783 6.81217 17.2619 8.86243C19.3122 10.9127 21.3624 12.963 23.4788 15.0132Z" fill="#3FA9F6"/>
</svg>
