<svg width="75" height="75" viewBox="0 0 75 75" fill="none" xmlns="http://www.w3.org/2000/svg">
<path opacity="0.5" d="M37.5 75C16.7922 75 0 58.2078 0 37.5C0 16.7922 16.7922 0 37.5 0C58.2078 0 75 16.7922 75 37.5C75 58.2188 58.2078 75 37.5 75Z" fill="#F1E0E5"/>
<path d="M37.125 65.25C21.5941 65.25 9 52.6559 9 37.125C9 21.5941 21.5941 9 37.125 9C52.6559 9 65.25 21.5941 65.25 37.125C65.25 52.6641 52.6559 65.25 37.125 65.25Z" fill="#FF484E"/>
<path d="M44.25 28H31.75C28 28 25.5 29.875 25.5 34.25V38.7C25.5 39.1625 25.975 39.45 26.3875 39.2625C27.6125 38.7 29.025 38.4875 30.5125 38.75C33.8 39.3375 36.2125 42.3875 36.125 45.725C36.1125 46.25 36.0375 46.7625 35.9 47.2625C35.8 47.65 36.1125 48.0125 36.5125 48.0125H44.25C48 48.0125 50.5 46.1375 50.5 41.7625V34.25C50.5 29.875 48 28 44.25 28ZM38 41.125C36.275 41.125 34.875 39.725 34.875 38C34.875 36.275 36.275 34.875 38 34.875C39.725 34.875 41.125 36.275 41.125 38C41.125 39.725 39.725 41.125 38 41.125ZM47.0625 40.5C47.0625 41.0125 46.6375 41.4375 46.125 41.4375C45.6125 41.4375 45.1875 41.0125 45.1875 40.5V35.5C45.1875 34.9875 45.6125 34.5625 46.125 34.5625C46.6375 34.5625 47.0625 34.9875 47.0625 35.5V40.5Z" fill="white"/>
<path d="M29.25 40.5C27.75 40.5 26.4125 41.1625 25.5 42.2C24.725 43.0875 24.25 44.2375 24.25 45.5C24.25 46.4375 24.5125 47.325 24.975 48.075C25.8375 49.525 27.425 50.5 29.25 50.5C30.5125 50.5 31.6625 50.0375 32.5375 49.25C32.925 48.925 33.2625 48.525 33.525 48.075C33.9875 47.325 34.25 46.4375 34.25 45.5C34.25 42.7375 32.0125 40.5 29.25 40.5ZM31.25 47.475C31.0625 47.6625 30.825 47.75 30.5875 47.75C30.35 47.75 30.1125 47.6625 29.925 47.475L29.2625 46.8125L28.575 47.5C28.3875 47.6875 28.15 47.775 27.9125 47.775C27.675 47.775 27.4375 47.6875 27.25 47.5C26.8875 47.1375 26.8875 46.5375 27.25 46.175L27.9375 45.4875L27.275 44.825C26.9125 44.4625 26.9125 43.8625 27.275 43.5C27.6375 43.1375 28.2375 43.1375 28.6 43.5L29.2625 44.1625L29.8875 43.5375C30.25 43.175 30.85 43.175 31.2125 43.5375C31.575 43.9 31.575 44.5 31.2125 44.8625L30.5875 45.4875L31.25 46.15C31.6125 46.5125 31.6125 47.1 31.25 47.475Z" fill="white"/>
</svg>
