<svg width="152" height="144" viewBox="0 0 152 144" fill="none" xmlns="http://www.w3.org/2000/svg">
<g filter="url(#filter0_ii_157_768)">
<rect y="5" width="139" height="139" rx="69.5" fill="#F1F5F9"/>
</g>
<g clip-path="url(#clip0_157_768)">
<path d="M86.613 27.126L85.749 27.289C84.9461 27.3763 84.1339 27.289 83.368 27.033C82.6021 26.777 81.9007 26.3583 81.3118 25.8058C80.7228 25.2532 80.2604 24.5798 79.9561 23.8318C79.6518 23.0837 79.5129 22.2788 79.549 21.472V5.455C79.549 4.73831 79.6902 4.02862 79.9646 3.36653C80.239 2.70444 80.6412 2.10291 81.1481 1.59631C81.6551 1.08972 82.2569 0.687999 82.9192 0.414094C83.5815 0.14019 84.2913 -0.000524068 85.008 1.46663e-06H107.876C109.323 1.46663e-06 110.71 0.574723 111.733 1.59773C112.756 2.62074 113.331 4.00825 113.331 5.455V21.472C113.331 22.1884 113.19 22.8977 112.916 23.5595C112.642 24.2214 112.24 24.8227 111.733 25.3293C111.227 25.8358 110.625 26.2376 109.964 26.5118C109.302 26.7859 108.592 26.927 107.876 26.927H87.427C87.1436 26.927 86.8644 26.9953 86.613 27.126Z" fill="#EAAADD"/>
<path d="M76.455 0.00100708H85.955C84.5082 0.00100708 83.1207 0.575729 82.0977 1.59874C81.0747 2.62175 80.5 4.00925 80.5 5.45601V21.473C80.5 22.1894 80.6411 22.8987 80.9152 23.5605C81.1894 24.2224 81.5912 24.8237 82.0977 25.3303C82.6043 25.8368 83.2056 26.2386 83.8675 26.5128C84.5293 26.7869 85.2386 26.928 85.955 26.928C86.189 26.928 86.4177 26.9976 86.612 27.128C86.466 27.2042 86.3313 27.3005 86.212 27.414L77.362 35.814C77.2718 35.8998 77.1568 35.9548 77.0334 35.9712C76.9101 35.9876 76.7847 35.9647 76.6752 35.9055C76.5657 35.8464 76.4776 35.7541 76.4237 35.642C76.3698 35.5298 76.3528 35.4035 76.375 35.281L77.719 27.818C77.7386 27.709 77.734 27.597 77.7057 27.49C77.6773 27.3829 77.6257 27.2834 77.5547 27.1984C77.4836 27.1135 77.3948 27.0451 77.2945 26.9982C77.1942 26.9513 77.0848 26.927 76.974 26.927H76.458C75.0112 26.927 73.6237 26.3523 72.6007 25.3293C71.5777 24.3063 71.003 22.9188 71.003 21.472V5.455C71.0033 4.00894 71.5777 2.62215 72.6 1.59944C73.6223 0.576733 75.0089 0.00180232 76.455 0.00100708Z" fill="#E490D0"/>
<path d="M118.404 12.746H145.24C146.869 12.746 148.432 13.3932 149.584 14.5452C150.736 15.6973 151.383 17.2598 151.383 18.889V37.166C151.383 37.9728 151.224 38.7717 150.916 39.5171C150.607 40.2626 150.155 40.9399 149.584 41.5104C149.014 42.0809 148.336 42.5335 147.591 42.8423C146.846 43.1511 146.047 43.31 145.24 43.31H144.585C144.28 43.31 143.98 43.3883 143.714 43.5375C143.448 43.6867 143.225 43.9018 143.066 44.162L142.955 44.344H135.76L135.068 43.823C134.626 43.4906 134.089 43.3108 133.536 43.311H118.404C116.775 43.311 115.212 42.6638 114.06 41.5118C112.908 40.3597 112.261 38.7972 112.261 37.168V18.889C112.261 17.2598 112.908 15.6973 114.06 14.5452C115.212 13.3932 116.775 12.746 118.404 12.746Z" fill="#B1E4F9"/>
<path d="M144.656 43.31C144.532 43.3102 144.409 43.3375 144.296 43.3902C144.183 43.4428 144.084 43.5195 144.004 43.6147C143.924 43.71 143.866 43.8216 143.833 43.9417C143.801 44.0618 143.796 44.1875 143.817 44.31L145.331 52.71C145.356 52.8479 145.336 52.99 145.275 53.1162C145.215 53.2423 145.115 53.346 144.992 53.4126C144.869 53.4791 144.728 53.505 144.589 53.4866C144.45 53.4681 144.321 53.4064 144.219 53.31L134.252 43.849C133.882 43.4978 133.391 43.302 132.881 43.302L144.656 43.31Z" fill="#90D8F9"/>
<path d="M109.851 12.746H119.351C117.722 12.746 116.159 13.3932 115.007 14.5452C113.855 15.6973 113.208 17.2598 113.208 18.889V37.166C113.208 38.7952 113.855 40.3577 115.007 41.5098C116.159 42.6618 117.722 43.309 119.351 43.309H109.851C108.222 43.309 106.659 42.6618 105.507 41.5098C104.355 40.3577 103.708 38.7952 103.708 37.166V18.889C103.708 17.2598 104.355 15.6973 105.507 14.5452C106.659 13.3932 108.222 12.746 109.851 12.746Z" fill="#90D8F9"/>
<path d="M112.126 22.27H142.957C143.256 22.27 143.542 22.1513 143.754 21.94C143.965 21.7288 144.084 21.4423 144.084 21.1435C144.084 20.8447 143.965 20.5582 143.754 20.3469C143.542 20.1357 143.256 20.017 142.957 20.017H112.126C111.827 20.017 111.541 20.1357 111.329 20.3469C111.118 20.5582 111 20.8447 111 21.1435C111 21.4423 111.118 21.7288 111.329 21.94C111.541 22.1513 111.827 22.27 112.126 22.27Z" fill="#F0F7FF"/>
<path d="M112.126 29.378H142.957C143.256 29.378 143.542 29.2593 143.754 29.0481C143.965 28.8368 144.084 28.5503 144.084 28.2515C144.084 27.9527 143.965 27.6662 143.754 27.455C143.542 27.2437 143.256 27.125 142.957 27.125H112.126C111.827 27.125 111.541 27.2437 111.329 27.455C111.118 27.6662 111 27.9527 111 28.2515C111 28.5503 111.118 28.8368 111.329 29.0481C111.541 29.2593 111.827 29.378 112.126 29.378Z" fill="#F0F7FF"/>
<path d="M127.544 36.486H142.962C143.261 36.486 143.547 36.3673 143.759 36.1561C143.97 35.9448 144.089 35.6583 144.089 35.3595C144.089 35.0607 143.97 34.7742 143.759 34.563C143.547 34.3517 143.261 34.233 142.962 34.233H127.544C127.245 34.233 126.959 34.3517 126.747 34.563C126.536 34.7742 126.418 35.0607 126.418 35.3595C126.418 35.6583 126.536 35.9448 126.747 36.1561C126.959 36.3673 127.245 36.486 127.544 36.486Z" fill="#F0F7FF"/>
<path d="M76.748 8.054H107.583C107.882 8.054 108.168 7.93532 108.38 7.72406C108.591 7.5128 108.709 7.22627 108.709 6.92751C108.709 6.62874 108.591 6.34221 108.38 6.13095C108.168 5.91969 107.882 5.80099 107.583 5.80099H76.748C76.4492 5.80099 76.1627 5.91969 75.9514 6.13095C75.7402 6.34221 75.6215 6.62874 75.6215 6.92751C75.6215 7.22627 75.7402 7.5128 75.9514 7.72406C76.1627 7.93532 76.4492 8.054 76.748 8.054Z" fill="#F0F7FF"/>
<path d="M76.748 15.161H92.166C92.4647 15.161 92.7513 15.0423 92.9625 14.8311C93.1738 14.6198 93.2924 14.3333 93.2924 14.0345C93.2924 13.7357 93.1738 13.4492 92.9625 13.2379C92.7513 13.0267 92.4647 12.908 92.166 12.908H76.748C76.4492 12.908 76.1627 13.0267 75.9514 13.2379C75.7402 13.4492 75.6215 13.7357 75.6215 14.0345C75.6215 14.3333 75.7402 14.6198 75.9514 14.8311C76.1627 15.0423 76.4492 15.161 76.748 15.161Z" fill="#F0F7FF"/>
</g>
<g clip-path="url(#clip1_157_768)">
<path d="M80.776 41H58.123C56.2603 40.9936 54.4697 41.7194 53.1373 43.021C51.8048 44.3226 51.0372 46.0957 51 47.958V100.8C51.0224 102.654 51.7761 104.425 53.0971 105.726C54.4181 107.028 56.1995 107.755 58.054 107.75L80.744 107.726C82.5929 107.729 84.3675 106.999 85.6794 105.696C86.9913 104.393 87.7337 102.624 87.744 100.775L87.777 47.959C87.7748 47.0422 87.5919 46.1349 87.2387 45.2888C86.8856 44.4428 86.3691 43.6747 85.7189 43.0284C85.0687 42.382 84.2975 41.8702 83.4494 41.5222C82.6012 41.1742 81.6928 40.9967 80.776 41ZM66.176 45.172H72.748C73.0246 45.172 73.2899 45.2819 73.4855 45.4775C73.6811 45.6731 73.791 45.9384 73.791 46.215C73.791 46.4916 73.6811 46.7569 73.4855 46.9525C73.2899 47.1481 73.0246 47.258 72.748 47.258H66.176C65.8994 47.258 65.6341 47.1481 65.4385 46.9525C65.2429 46.7569 65.133 46.4916 65.133 46.215C65.133 45.9384 65.2429 45.6731 65.4385 45.4775C65.6341 45.2819 65.8994 45.172 66.176 45.172ZM62.227 45.504C62.4285 45.3167 62.6934 45.2126 62.9685 45.2126C63.2436 45.2126 63.5085 45.3167 63.71 45.504C63.8558 45.6502 63.9551 45.8363 63.9952 46.0389C64.0354 46.2414 64.0146 46.4514 63.9355 46.6421C63.8565 46.8329 63.7226 46.9959 63.551 47.1107C63.3793 47.2255 63.1775 47.2868 62.971 47.287C62.6926 47.2849 62.4259 47.1748 62.227 46.98C62.0326 46.7836 61.9235 46.5184 61.9235 46.242C61.9235 45.9656 62.0326 45.7004 62.227 45.504ZM69.251 105.679C68.6343 105.676 68.0323 105.491 67.5209 105.146C67.0095 104.802 66.6117 104.313 66.3776 103.743C66.1435 103.172 66.0837 102.545 66.2057 101.941C66.3277 101.336 66.626 100.781 67.0631 100.346C67.5001 99.9111 68.0562 99.6153 68.6613 99.496C69.2663 99.3767 69.8931 99.4393 70.4626 99.6759C71.032 99.9126 71.5187 100.313 71.861 100.826C72.2033 101.338 72.386 101.941 72.386 102.558C72.3831 103.387 72.0515 104.181 71.4641 104.766C70.8766 105.351 70.0811 105.68 69.252 105.679H69.251ZM84.525 97.316H54.665V50.908H84.525V97.316Z" fill="url(#paint0_linear_157_768)"/>
</g>
<defs>
<filter id="filter0_ii_157_768" x="-4" y="1" width="147" height="147" filterUnits="userSpaceOnUse" color-interpolation-filters="sRGB">
<feFlood flood-opacity="0" result="BackgroundImageFix"/>
<feBlend mode="normal" in="SourceGraphic" in2="BackgroundImageFix" result="shape"/>
<feColorMatrix in="SourceAlpha" type="matrix" values="0 0 0 0 0 0 0 0 0 0 0 0 0 0 0 0 0 0 127 0" result="hardAlpha"/>
<feOffset dx="-4" dy="-4"/>
<feGaussianBlur stdDeviation="3"/>
<feComposite in2="hardAlpha" operator="arithmetic" k2="-1" k3="1"/>
<feColorMatrix type="matrix" values="0 0 0 0 1 0 0 0 0 1 0 0 0 0 1 0 0 0 0.8 0"/>
<feBlend mode="normal" in2="shape" result="effect1_innerShadow_157_768"/>
<feColorMatrix in="SourceAlpha" type="matrix" values="0 0 0 0 0 0 0 0 0 0 0 0 0 0 0 0 0 0 127 0" result="hardAlpha"/>
<feOffset dx="4" dy="4"/>
<feGaussianBlur stdDeviation="3"/>
<feComposite in2="hardAlpha" operator="arithmetic" k2="-1" k3="1"/>
<feColorMatrix type="matrix" values="0 0 0 0 0.843576 0 0 0 0 0.892622 0 0 0 0 0.941667 0 0 0 0.8 0"/>
<feBlend mode="normal" in2="effect1_innerShadow_157_768" result="effect2_innerShadow_157_768"/>
</filter>
<linearGradient id="paint0_linear_157_768" x1="69.3885" y1="41" x2="69.3885" y2="107.75" gradientUnits="userSpaceOnUse">
<stop stop-color="#3BA0F6"/>
<stop offset="1" stop-color="#276AF1"/>
</linearGradient>
<clipPath id="clip0_157_768">
<rect width="80.38" height="53.503" fill="white" transform="translate(71)"/>
</clipPath>
<clipPath id="clip1_157_768">
<rect width="36.779" height="66.746" fill="white" transform="translate(51 41)"/>
</clipPath>
</defs>
</svg>
