<svg width="13" height="12" viewBox="0 0 13 12" fill="none" xmlns="http://www.w3.org/2000/svg">
<path fill-rule="evenodd" clip-rule="evenodd" d="M4.28287 0.117294C4.43907 0.273489 4.43907 0.526686 4.28287 0.682964L1.36581 3.60003H8.60007C10.9197 3.60003 12.8001 5.48046 12.8001 7.80001C12.8001 10.1196 10.9196 12 8.60007 12H0.400027C0.179121 12 0 11.821 0 11.6C0 11.3791 0.179129 11.2 0.400027 11.2H8.60007C10.4778 11.2 11.9999 9.67777 11.9999 7.79997C11.9999 5.92217 10.4777 4.39991 8.60007 4.39991H1.36581L4.28287 7.31719C4.43907 7.47338 4.43907 7.72666 4.28287 7.88285C4.12668 8.03905 3.8734 8.03905 3.7172 7.88285L0.117214 4.28287C-0.0389807 4.12667 -0.0389807 3.87339 0.117214 3.7172L3.7172 0.117209C3.8734 -0.0390695 4.12668 -0.0390695 4.28287 0.117209V0.117294Z" fill="#3F75F3"/>
</svg>
