<svg width="26" height="26" viewBox="0 0 26 26" fill="none" xmlns="http://www.w3.org/2000/svg">
<path d="M11.3641 2.41582L5.95825 4.44164C4.71242 4.90748 3.69409 6.3808 3.69409 7.7133V15.7625C3.69409 17.0408 4.5391 18.72 5.56827 19.4891L10.2266 22.9667C11.7541 24.115 14.2674 24.115 15.7949 22.9667L20.4533 19.4891C21.4824 18.72 22.3274 17.0408 22.3274 15.7625V7.7133C22.3274 6.3808 21.3091 4.90748 20.0632 4.44164L14.6574 2.41582C13.7366 2.07998 12.2632 2.07998 11.3641 2.41582Z" stroke="#3F75F3" stroke-width="1.3" stroke-linecap="round" stroke-linejoin="round"/>
<path d="M13 11.83C12.9567 11.83 12.9025 11.83 12.8592 11.83C11.8408 11.7975 11.0283 10.9525 11.0283 9.92334C11.0283 8.87251 11.8842 8.01666 12.935 8.01666C13.9858 8.01666 14.8417 8.87251 14.8417 9.92334C14.8308 10.9633 14.0183 11.7975 13 11.83Z" stroke="#3F75F3" stroke-width="1.3" stroke-linecap="round" stroke-linejoin="round"/>
<path d="M10.8442 14.8633C9.80421 15.5567 9.80421 16.6941 10.8442 17.3875C12.025 18.1783 13.9642 18.1783 15.145 17.3875C16.185 16.6941 16.185 15.5567 15.145 14.8633C13.975 14.0725 12.0359 14.0725 10.8442 14.8633Z" stroke="#3F75F3" stroke-width="1.3" stroke-linecap="round" stroke-linejoin="round"/>
</svg>
