<svg width="116" height="146" viewBox="0 0 116 146" fill="none" xmlns="http://www.w3.org/2000/svg">
<path d="M21.0615 17L16.0835 4.327H13.3095L8.3315 17H10.8585L11.7895 14.568H17.6035L18.5345 17H21.0615ZM16.9765 12.611H12.4165L14.6965 6.569L16.9765 12.611ZM30.8437 17V4.327H28.8487V9.096C28.1077 8.127 27.0437 7.595 25.9037 7.595C23.5287 7.595 21.8187 9.457 21.8187 12.421C21.8187 15.442 23.5477 17.228 25.9037 17.228C27.0817 17.228 28.1457 16.658 28.8487 15.746V17H30.8437ZM26.4737 15.461C24.8967 15.461 23.8897 14.188 23.8897 12.421C23.8897 10.635 24.8967 9.362 26.4737 9.362C27.4237 9.362 28.3927 9.913 28.8487 10.597V14.245C28.3927 14.929 27.4237 15.461 26.4737 15.461ZM41.8837 17V4.327H39.8887V9.096C39.1477 8.127 38.0837 7.595 36.9437 7.595C34.5687 7.595 32.8587 9.457 32.8587 12.421C32.8587 15.442 34.5877 17.228 36.9437 17.228C38.1217 17.228 39.1857 16.658 39.8887 15.746V17H41.8837ZM37.5137 15.461C35.9367 15.461 34.9297 14.188 34.9297 12.421C34.9297 10.635 35.9367 9.362 37.5137 9.362C38.4637 9.362 39.4327 9.913 39.8887 10.597V14.245C39.4327 14.929 38.4637 15.461 37.5137 15.461ZM62.5916 17V10.369C62.5916 8.507 61.6416 7.595 59.9506 7.595C58.5826 7.595 57.3666 8.45 56.8346 9.286C56.5306 8.279 55.6946 7.595 54.3266 7.595C52.9396 7.595 51.7236 8.507 51.3436 9.077V7.823H49.3486V17H51.3436V10.597C51.7616 9.989 52.5786 9.362 53.4526 9.362C54.5356 9.362 54.9726 10.027 54.9726 11.015V17H56.9676V10.578C57.3666 9.989 58.2026 9.362 59.0956 9.362C60.1596 9.362 60.5966 10.027 60.5966 11.015V17H62.5916ZM69.3178 17.228C72.2628 17.228 74.0488 15.043 74.0488 12.402C74.0488 9.78 72.2628 7.595 69.3178 7.595C66.4108 7.595 64.6058 9.78 64.6058 12.402C64.6058 15.043 66.4108 17.228 69.3178 17.228ZM69.3178 15.461C67.6268 15.461 66.6768 14.036 66.6768 12.402C66.6768 10.787 67.6268 9.362 69.3178 9.362C71.0278 9.362 71.9778 10.787 71.9778 12.402C71.9778 14.036 71.0278 15.461 69.3178 15.461ZM84.2564 17V10.54C84.2564 8.659 83.2684 7.595 81.2924 7.595C79.8484 7.595 78.6704 8.355 78.0624 9.077V7.823H76.0674V17H78.0624V10.597C78.5184 9.97 79.3924 9.362 80.4184 9.362C81.5394 9.362 82.2614 9.837 82.2614 11.262V17H84.2564ZM91.0847 17.228C92.5477 17.228 93.8967 16.772 94.8087 15.898L93.8967 14.587C93.2507 15.233 92.1867 15.594 91.2937 15.594C89.5647 15.594 88.5197 14.454 88.3677 13.067H95.4547V12.592C95.4547 9.704 93.6877 7.595 90.9327 7.595C88.2157 7.595 86.2777 9.742 86.2777 12.402C86.2777 15.309 88.3297 17.228 91.0847 17.228ZM93.5167 11.661H88.3487C88.4437 10.54 89.2227 9.229 90.9327 9.229C92.7377 9.229 93.4787 10.578 93.5167 11.661ZM97.0248 20.591C97.3098 20.667 97.8608 20.724 98.1458 20.724C99.5708 20.705 100.673 20.211 101.3 18.653L105.727 7.823H103.58L100.901 14.701L98.2218 7.823H96.0938L99.8558 17.114L99.3998 18.159C99.1338 18.767 98.7158 18.957 98.0888 18.957C97.8608 18.957 97.5378 18.9 97.3288 18.805L97.0248 20.591Z" fill="#202020"/>
<g filter="url(#filter0_ddii_360_2858)">
<circle cx="58" cy="88" r="40" fill="#F1F5F9"/>
</g>
<path d="M70.1668 82.2V90.7833C70.1668 95.9167 67.2334 98.1166 62.8334 98.1166H48.1834C47.4334 98.1166 46.7168 98.05 46.0501 97.9C45.6334 97.8334 45.2334 97.7167 44.8668 97.5834C42.3668 96.65 40.8501 94.4833 40.8501 90.7833V82.2C40.8501 77.0666 43.7834 74.8667 48.1834 74.8667H62.8334C66.5668 74.8667 69.2501 76.45 69.9668 80.0667C70.0834 80.7334 70.1668 81.4166 70.1668 82.2Z" stroke="#3F75F3" stroke-width="1.5" stroke-miterlimit="10" stroke-linecap="round" stroke-linejoin="round"/>
<path d="M75.1684 87.2002V95.7835C75.1684 100.917 72.2351 103.117 67.8351 103.117H53.1851C51.9518 103.117 50.8351 102.95 49.8684 102.584C47.8851 101.85 46.5351 100.334 46.0518 97.9002C46.7184 98.0502 47.4351 98.1168 48.1851 98.1168H62.8351C67.2351 98.1168 70.1684 95.9169 70.1684 90.7835V82.2002C70.1684 81.4168 70.1018 80.7169 69.9684 80.0669C73.1351 80.7336 75.1684 82.9668 75.1684 87.2002Z" stroke="#3F75F3" stroke-width="1.5" stroke-miterlimit="10" stroke-linecap="round" stroke-linejoin="round"/>
<path d="M55.4977 90.8998C57.9277 90.8998 59.8977 88.9298 59.8977 86.4998C59.8977 84.0697 57.9277 82.0998 55.4977 82.0998C53.0676 82.0998 51.0977 84.0697 51.0977 86.4998C51.0977 88.9298 53.0676 90.8998 55.4977 90.8998Z" stroke="#3F75F3" stroke-width="1.5" stroke-miterlimit="10" stroke-linecap="round" stroke-linejoin="round"/>
<path d="M45.9668 82.8333V90.1667" stroke="#3F75F3" stroke-width="1.5" stroke-miterlimit="10" stroke-linecap="round" stroke-linejoin="round"/>
<path d="M65.0361 82.8338V90.1672" stroke="#3F75F3" stroke-width="1.5" stroke-miterlimit="10" stroke-linecap="round" stroke-linejoin="round"/>
<defs>
<filter id="filter0_ddii_360_2858" x="0" y="30" width="116" height="116" filterUnits="userSpaceOnUse" color-interpolation-filters="sRGB">
<feFlood flood-opacity="0" result="BackgroundImageFix"/>
<feColorMatrix in="SourceAlpha" type="matrix" values="0 0 0 0 0 0 0 0 0 0 0 0 0 0 0 0 0 0 127 0" result="hardAlpha"/>
<feOffset dx="-6" dy="-6"/>
<feGaussianBlur stdDeviation="6"/>
<feComposite in2="hardAlpha" operator="out"/>
<feColorMatrix type="matrix" values="0 0 0 0 1 0 0 0 0 1 0 0 0 0 1 0 0 0 1 0"/>
<feBlend mode="normal" in2="BackgroundImageFix" result="effect1_dropShadow_360_2858"/>
<feColorMatrix in="SourceAlpha" type="matrix" values="0 0 0 0 0 0 0 0 0 0 0 0 0 0 0 0 0 0 127 0" result="hardAlpha"/>
<feOffset dx="6" dy="6"/>
<feGaussianBlur stdDeviation="6"/>
<feComposite in2="hardAlpha" operator="out"/>
<feColorMatrix type="matrix" values="0 0 0 0 0.831373 0 0 0 0 0.878431 0 0 0 0 0.921569 0 0 0 0.8 0"/>
<feBlend mode="normal" in2="effect1_dropShadow_360_2858" result="effect2_dropShadow_360_2858"/>
<feBlend mode="normal" in="SourceGraphic" in2="effect2_dropShadow_360_2858" result="shape"/>
<feColorMatrix in="SourceAlpha" type="matrix" values="0 0 0 0 0 0 0 0 0 0 0 0 0 0 0 0 0 0 127 0" result="hardAlpha"/>
<feOffset dx="5" dy="5"/>
<feGaussianBlur stdDeviation="5"/>
<feComposite in2="hardAlpha" operator="arithmetic" k2="-1" k3="1"/>
<feColorMatrix type="matrix" values="0 0 0 0 0.831373 0 0 0 0 0.878431 0 0 0 0 0.921569 0 0 0 0.8 0"/>
<feBlend mode="normal" in2="shape" result="effect3_innerShadow_360_2858"/>
<feColorMatrix in="SourceAlpha" type="matrix" values="0 0 0 0 0 0 0 0 0 0 0 0 0 0 0 0 0 0 127 0" result="hardAlpha"/>
<feOffset dx="-5" dy="-5"/>
<feGaussianBlur stdDeviation="5"/>
<feComposite in2="hardAlpha" operator="arithmetic" k2="-1" k3="1"/>
<feColorMatrix type="matrix" values="0 0 0 0 1 0 0 0 0 1 0 0 0 0 1 0 0 0 1 0"/>
<feBlend mode="normal" in2="effect3_innerShadow_360_2858" result="effect4_innerShadow_360_2858"/>
</filter>
</defs>
</svg>
