<svg width="26" height="26" viewBox="0 0 26 26" fill="none" xmlns="http://www.w3.org/2000/svg">
<path d="M11.3641 2.41582L5.95826 4.45248C4.71243 4.91832 3.69409 6.39165 3.69409 7.71332V15.7625C3.69409 17.0408 4.53909 18.72 5.56826 19.4891L10.2266 22.9667C11.7541 24.115 14.2674 24.115 15.7949 22.9667L20.4533 19.4891C21.4824 18.72 22.3274 17.0408 22.3274 15.7625V7.71332C22.3274 6.38082 21.3091 4.90748 20.0633 4.44165L14.6574 2.41582C13.7366 2.07998 12.2633 2.07998 11.3641 2.41582Z" stroke="#3F75F3" stroke-width="1.5" stroke-linecap="round" stroke-linejoin="round"/>
<path d="M12.9999 13.5416C14.1965 13.5416 15.1666 12.5716 15.1666 11.375C15.1666 10.1784 14.1965 9.20831 12.9999 9.20831C11.8033 9.20831 10.8333 10.1784 10.8333 11.375C10.8333 12.5716 11.8033 13.5416 12.9999 13.5416Z" stroke="#3F75F3" stroke-width="1.5" stroke-miterlimit="10" stroke-linecap="round" stroke-linejoin="round"/>
<path d="M13 13.5417V16.7917" stroke="#3F75F3" stroke-width="1.5" stroke-miterlimit="10" stroke-linecap="round" stroke-linejoin="round"/>
</svg>
