<svg width="25" height="29" viewBox="0 0 25 29" fill="none" xmlns="http://www.w3.org/2000/svg">
<path d="M19.1936 7.69383C19.1936 9.01774 18.801 10.3119 18.0655 11.4127C17.3299 12.5135 16.2845 13.3715 15.0614 13.8781C13.8382 14.3848 12.4923 14.5173 11.1938 14.259C9.89536 14.0008 8.70264 13.3632 7.76649 12.4271C6.83034 11.4909 6.19281 10.2982 5.93453 8.99973C5.67625 7.70126 5.80881 6.35535 6.31545 5.13221C6.82209 3.90907 7.68005 2.86364 8.78085 2.12811C9.88164 1.39259 11.1758 1 12.4997 1C14.2751 1 15.9777 1.70524 17.233 2.96058C18.4883 4.21591 19.1936 5.91852 19.1936 7.69383Z" stroke="#3FA9F6" stroke-width="2" stroke-linecap="round" stroke-linejoin="round"/>
<path d="M24 27.7753C24 22.5943 18.8458 18.404 12.5 18.404C6.15425 18.404 1 22.5943 1 27.7753" stroke="#3FA9F6" stroke-width="2" stroke-linecap="round" stroke-linejoin="round"/>
</svg>
