<svg width="31" height="31" viewBox="0 0 31 31" fill="none" xmlns="http://www.w3.org/2000/svg">
<path d="M4.84375 7.75V23.25C4.84375 23.7639 5.04788 24.2567 5.41123 24.62C5.77458 24.9834 6.26739 25.1875 6.78125 25.1875H26.1562C26.4132 25.1875 26.6596 25.0854 26.8413 24.9038C27.0229 24.7221 27.125 24.4757 27.125 24.2188V10.6562C27.125 10.3993 27.0229 10.1529 26.8413 9.97124C26.6596 9.78956 26.4132 9.6875 26.1562 9.6875H6.78125C6.26739 9.6875 5.77458 9.48337 5.41123 9.12002C5.04788 8.75667 4.84375 8.26386 4.84375 7.75ZM4.84375 7.75C4.84375 7.23614 5.04788 6.74333 5.41123 6.37998C5.77458 6.01663 6.26739 5.8125 6.78125 5.8125H23.25" stroke="white" stroke-width="1.5" stroke-linecap="round" stroke-linejoin="round"/>
<path d="M21.7969 18.6484C22.4657 18.6484 23.0078 18.1063 23.0078 17.4375C23.0078 16.7687 22.4657 16.2266 21.7969 16.2266C21.1281 16.2266 20.5859 16.7687 20.5859 17.4375C20.5859 18.1063 21.1281 18.6484 21.7969 18.6484Z" fill="white"/>
</svg>
